<?xml version="1.0" encoding="utf-8"?>
<svg version="1.1" xmlns:xlink="http://www.w3.org/1999/xlink" width="25px" height="17px" xmlns="http://www.w3.org/2000/svg">
  <g transform="matrix(1 0 0 1 -501 -2061 )">
    <path d="M 513.5 2061  C 520.5 2061  526 2064.74  526 2069.5  C 526 2074.26  520.5 2078  513.5 2078  C 506.5 2078  501 2074.26  501 2069.5  C 501 2064.74  506.5 2061  513.5 2061  Z " fill-rule="nonzero" fill="#000000" stroke="none" />
    <path d="M 513.5 2061.5  C 520.22 2061.5  525.5 2065.02  525.5 2069.5  C 525.5 2073.98  520.22 2077.5  513.5 2077.5  C 506.78 2077.5  501.5 2073.98  501.5 2069.5  C 501.5 2065.02  506.78 2061.5  513.5 2061.5  Z " stroke-width="1" stroke="#797979" fill="none" />
  </g>
</svg>