<?xml version="1.0" encoding="utf-8"?>
<svg version="1.1" xmlns:xlink="http://www.w3.org/1999/xlink" width="519px" height="157px" xmlns="http://www.w3.org/2000/svg">
  <g transform="matrix(1 0 0 1 -285 -1940 )">
    <path d="M 285 1940  L 804 1940  L 804 2097  L 285 2097  L 285 1940  " fill-rule="nonzero" fill="#cccccc" stroke="none" />
    <path d="M 296 1951  L 793 1951  L 793 2086  L 296 2086  L 296 1951  " fill-rule="nonzero" fill="#ffffff" stroke="none" />
    <path d="M 566.655 1987.1  C 560.061 1987.1  554.88 1981.919  554.88 1975.325  C 554.88 1968.731  560.061 1963.55  566.655 1963.55  C 573.249 1963.55  578.43 1968.731  578.43 1975.325  C 578.43 1981.919  573.249 1987.1  566.655 1987.1  " fill-rule="nonzero" fill="#cccccc" stroke="none" />
    <path d="M 300 2082  L 300 2012.15  L 422.25 1980.4  L 593.4 2058.94913294798  L 691.2 1999.45  L 789 2058.94913294798  L 789 2082  L 300 2082  " fill-rule="nonzero" fill="#169bd5" stroke="none" />
  </g>
</svg>