<?xml version="1.0" encoding="utf-8"?>
<svg version="1.1" xmlns:xlink="http://www.w3.org/1999/xlink" width="489px" height="254px" xmlns="http://www.w3.org/2000/svg">
  <g transform="matrix(1 0 0 1 -1235 -483 )">
    <path d="M 1235 483  L 1724 483  L 1724 737  L 1235 737  L 1235 483  " fill-rule="nonzero" fill="#cccccc" stroke="none" />
    <path d="M 1253 501  L 1706 501  L 1706 719  L 1253 719  L 1253 501  " fill-rule="nonzero" fill="#ffffff" stroke="none" />
    <path d="M 1508.33 559.2  C 1497.662 559.2  1489.28 550.818  1489.28 540.15  C 1489.28 529.482  1497.662 521.1  1508.33 521.1  C 1518.998 521.1  1527.38 529.482  1527.38 540.15  C 1527.38 550.818  1518.998 559.2  1508.33 559.2  " fill-rule="nonzero" fill="#cccccc" stroke="none" />
    <path d="M 1260 713  L 1260 600.25  L 1370 549  L 1524 649.110429447853  L 1612 579.75  L 1700 649.110429447853  L 1700 713  L 1260 713  " fill-rule="nonzero" fill="#169bd5" stroke="none" />
  </g>
</svg>