<?xml version="1.0" encoding="utf-8"?>
<svg version="1.1" xmlns:xlink="http://www.w3.org/1999/xlink" width="40px" height="50px" xmlns="http://www.w3.org/2000/svg">
  <defs>
    <filter x="1646px" y="987px" width="40px" height="50px" filterUnits="userSpaceOnUse" id="filter105">
      <feOffset dx="1" dy="1" in="SourceAlpha" result="shadowOffsetInner" />
      <feGaussianBlur stdDeviation="2.5" in="shadowOffsetInner" result="shadowGaussian" />
      <feComposite in2="shadowGaussian" operator="atop" in="SourceAlpha" result="shadowComposite" />
      <feColorMatrix type="matrix" values="0 0 0 0 0  0 0 0 0 0  0 0 0 0 0  0 0 0 0.698039215686274 0  " in="shadowComposite" />
    </filter>
    <g id="widget106">
      <path d="M 1665 1030.03692846835  C 1659.2 1020.40734059591  1650.5 1014.62958787244  1650.5 1005  C 1650.5 999.985714285714  1653.4 991.5  1665 991.5  C 1676.6 991.5  1679.5 999.985714285714  1679.5 1005  C 1679.5 1014.62958787244  1670.8 1020.40734059591  1665 1030.03692846835  Z " fill-rule="nonzero" fill="#009dd9" stroke="none" />
      <path d="M 1665 1031  C 1659 1021  1650 1015  1650 1005  C 1650 999.8  1653 991  1665 991  C 1677 991  1680 999.8  1680 1005  C 1680 1015  1671 1021  1665 1031  Z M 1665 1029.07385693671  C 1670.6 1019.81468119182  1679 1014.25917574489  1679 1005  C 1679 1000.17142857143  1676.2 992  1665 992  C 1653.8 992  1651 1000.17142857143  1651 1005  C 1651 1014.25917574489  1659.4 1019.81468119182  1665 1029.07385693671  Z " fill-rule="nonzero" fill="#ffffff" stroke="none" />
    </g>
  </defs>
  <g transform="matrix(1 0 0 1 -1646 -987 )">
    <use xlink:href="#widget106" filter="url(#filter105)" />
    <use xlink:href="#widget106" />
  </g>
</svg>