<?xml version="1.0" encoding="utf-8"?>
<svg version="1.1" xmlns:xlink="http://www.w3.org/1999/xlink" width="472px" height="210px" xmlns="http://www.w3.org/2000/svg">
  <g transform="matrix(1 0 0 1 -3153 -318 )">
    <path d="M 3153 318  L 3625 318  L 3625 528  L 3153 528  L 3153 318  " fill-rule="nonzero" fill="#cccccc" stroke="none" />
    <path d="M 3168 333  L 3610 333  L 3610 513  L 3168 513  L 3168 333  " fill-rule="nonzero" fill="#ffffff" stroke="none" />
    <path d="M 3414.19 381  C 3405.37 381  3398.44 374.07  3398.44 365.25  C 3398.44 356.43  3405.37 349.5  3414.19 349.5  C 3423.01 349.5  3429.94 356.43  3429.94 365.25  C 3429.94 374.07  3423.01 381  3414.19 381  " fill-rule="nonzero" fill="#cccccc" stroke="none" />
    <path d="M 3174 508  L 3174 415.05  L 3281.75 372.8  L 3432.6 462.885593220339  L 3518.8 398.15  L 3605 462.885593220339  L 3605 508  L 3174 508  " fill-rule="nonzero" fill="#169bd5" stroke="none" />
  </g>
</svg>