<?xml version="1.0" encoding="utf-8"?>
<svg version="1.1" xmlns:xlink="http://www.w3.org/1999/xlink" width="32px" height="31px" xmlns="http://www.w3.org/2000/svg">
  <g transform="matrix(1 0 0 1 -3327 -489 )">
    <path d="M 3343 489  C 3351.96 489  3359 495.82  3359 504.5  C 3359 513.18  3351.96 520  3343 520  C 3334.04 520  3327 513.18  3327 504.5  C 3327 495.82  3334.04 489  3343 489  Z " fill-rule="nonzero" fill="#000000" stroke="none" />
    <path d="M 3343 489.5  C 3351.68 489.5  3358.5 496.1  3358.5 504.5  C 3358.5 512.9  3351.68 519.5  3343 519.5  C 3334.32 519.5  3327.5 512.9  3327.5 504.5  C 3327.5 496.1  3334.32 489.5  3343 489.5  Z " stroke-width="1" stroke="#797979" fill="none" />
  </g>
</svg>