<?xml version="1.0" encoding="utf-8"?>
<svg version="1.1" xmlns:xlink="http://www.w3.org/1999/xlink" width="300px" height="170px" xmlns="http://www.w3.org/2000/svg">
  <g transform="matrix(1 0 0 1 -310 -721 )">
    <path d="M 310 721  L 610 721  L 610 891  L 310 891  L 310 721  " fill-rule="nonzero" fill="#cccccc" stroke="none" />
    <path d="M 322 733  L 598 733  L 598 879  L 322 879  L 322 733  " fill-rule="nonzero" fill="#ffffff" stroke="none" />
    <path d="M 478.75 772  C 471.61 772  466 766.39  466 759.25  C 466 752.11  471.61 746.5  478.75 746.5  C 485.89 746.5  491.5 752.11  491.5 759.25  C 491.5 766.39  485.89 772  478.75 772  " fill-rule="nonzero" fill="#cccccc" stroke="none" />
    <path d="M 327 875  L 327 799.65  L 393.75 765.4  L 487.2 828.42  L 540.6 785.95  L 594 828.42  L 594 875  L 327 875  " fill-rule="nonzero" fill="#169bd5" stroke="none" />
  </g>
</svg>