<?xml version="1.0" encoding="utf-8"?>
<svg version="1.1" xmlns:xlink="http://www.w3.org/1999/xlink" width="20px" height="20px" xmlns="http://www.w3.org/2000/svg">
  <g transform="matrix(1 0 0 1 -252 -403 )">
    <path d="M 0.0793650716145834 10  C 0.0793650716145834 4.5436507859003  4.5436507859003 0.0793650716145834  10 0.0793650716145834  C 15.4563492140997 0.0793650716145834  19.9206349283854 4.5436507859003  19.9206349283854 10  C 19.9206349283854 15.4563492140997  15.4563492140997 19.9206349283854  10 19.9206349283854  C 4.5436507859003 19.9206349283854  0.0793650716145834 15.4563492140997  0.0793650716145834 10  Z M 18.5317460239955 10  C 18.5317460239955 5.33730159505208  14.6626984049479 1.46825397600446  10 1.46825397600446  C 5.33730159505208 1.46825397600446  1.46825397600446 5.33730159505208  1.46825397600446 10  C 1.46825397600446 14.6626984049479  5.33730159505208 18.5317460239955  10 18.5317460239955  C 14.6626984049479 18.5317460239955  18.5317460239955 14.6626984049479  18.5317460239955 10  Z M 6.83531745256696 3.4563492140997  L 13.2113095238095 3.45535714285714  C 13.7592110656206 3.45535714285714  14.2033730236235 3.8995191008601  14.2033730236235 4.44742064267113  L 14.2033730236235 6.08630952380952  C 14.203002779142 6.6150660937962  13.9915945528934 7.12180303482305  13.6160714285714 7.49404761904762  L 11.0684523809524 10.0238095238095  L 13.6160714285714 12.5525793573289  C 13.9918386335498 12.9250661274278  14.2032672088051 13.4322089898472  14.2033730236235 13.9613095238095  L 14.2033730236235 15.5992063569568  C 14.2033730107821 16.1471078896876  13.7592110565403 16.5912698335193  13.2113095238095 16.5912698335193  L 6.83531745256696 16.5912698335193  C 6.28741592891648 16.5912698206779  5.84325398884591 16.1471078806073  5.84325397600446 15.5992063569568  L 5.84325397600446 13.960317452567  C 5.84309742435429 13.4313601994295  6.05416038795364 12.9242376867168  6.42956349981399 12.5515873093378  L 8.97916666666667 10.022817452567  L 6.42857142857143 7.49404761904762  C 6.05353234365626 7.12123374452829  5.84283494710725 6.61413152638015  5.84325397600446 6.08531745256696  L 5.84325397600446 4.4484126906622  C 5.84325398884591 3.90051116701172  6.28741592891648 3.45634922694114  6.83531745256696 3.4563492140997  Z M 12.3730158807664 13.2073412620908  L 10.022817452567 11.0386904761905  L 7.65376983351934 13.2063492140997  C 7.44829942057947 13.3943258972637  7.33129845552557 13.6600081014515  7.3313492140997 13.9384920712426  L 7.3313492140997 14.360119047619  C 7.3313492140997 14.8333333333333  7.71527778552827 15.2182539760045  8.18948411923363 15.2182539760045  L 11.8343254045759 15.2182539760045  C 12.30826022974 15.218253963163  12.6924603097098 14.8340538727832  12.6924603097098 14.360119047619  L 12.6924603097098 13.9365079287574  C 12.6924431657904 13.6595147585258  12.5766230036054 13.3951426363618  12.3730158807664 13.2073412620908  Z M 12.6934523809524 5.80853173828125  C 12.6934523681109 5.33459691311712  12.3092522777311 4.95039683314732  11.835317452567 4.95039683314732  L 8.19047619047619 4.95039683314732  C 7.71654136531205 4.95039683314732  7.33234127493222 5.33459691311712  7.33234126209077 5.80853173828125  L 7.33234126209077 6.23015873790923  C 7.33256879419682 6.50829734122311  7.44954615719784 6.77356599828606  7.6547619047619 6.96130952380952  L 10.0238095238095 9.12996030970982  L 12.375 6.96130952380952  C 12.5782405184202 6.77333379958185  12.6936908481086 6.5089849138468  12.6934523809524 6.23214285714286  L 12.6934523809524 5.80853173828125  Z " fill-rule="nonzero" fill="#d2d4df" stroke="none" transform="matrix(1 0 0 1 252 403 )" />
  </g>
</svg>