<?xml version="1.0" encoding="utf-8"?>
<svg version="1.1" xmlns:xlink="http://www.w3.org/1999/xlink" width="11px" height="13px" xmlns="http://www.w3.org/2000/svg">
  <g transform="matrix(1 0 0 1 -1385 -298 )">
    <path d="M 7.49044253700658 12.796875  C 13.3703767475329 10.928125  9.93287674753289 5.321875  9.93287674753289 5.321875  C 9.61626490542763 4.225  9.93287674753289 3.49375  9.93287674753289 3.49375  C 8.84735043174342 3.615625  8.30458727384868 4.95625  8.30458727384868 4.95625  C 7.89751490542763 0.8125  3.78156095805921 0  3.78156095805921 0  C 4.59570569490132 0.8125  3.69110043174342 3.128125  2.78649516858553 3.940625  C 1.74619911595395 4.875  1.293896484375 6.459375  1.293896484375 6.459375  C 1.38435701069079 6.134375  0.751133326480262 5.403125  0.751133326480262 5.403125  C -1.91745219983553 11.740625  4.09817280016447 13  4.09817280016447 13  C 2.65080437911184 11.578125  4.09817280016447 9.99375  4.09817280016447 9.99375  C 4.64093595805921 9.384375  5.50031095805921 7.596875  5.50031095805921 7.596875  C 9.25442280016447 10.8875  7.49044253700658 12.796875  7.49044253700658 12.796875  Z " fill-rule="nonzero" fill="#f14842" stroke="none" transform="matrix(1 0 0 1 1385 298 )" />
  </g>
</svg>