<?xml version="1.0" encoding="utf-8"?>
<svg version="1.1" xmlns:xlink="http://www.w3.org/1999/xlink" width="11px" height="11px" xmlns="http://www.w3.org/2000/svg">
  <g transform="matrix(1 0 0 1 -1857 -307 )">
    <path d="M 0.947474449685535 6.91691430214724  C 0.947474449685535 6.66252875766871  0.736684355345912 6.45559336656442  0.474547955974843 6.45559336656442  C 0.213762775157232 6.45559336656442  0.00162146226415094 6.66252875766871  0.00162146226415094 6.91691430214724  L 0.00162146226415094 10.5020370015337  C 0.00162146226415094 10.7564225460123  0.213762775157232 10.9633579371166  0.474547955974843 10.9633579371166  C 0.735333136792453 10.9633579371166  0.947474449685535 10.7564225460123  0.947474449685535 10.5020370015337  L 0.947474449685535 6.91691430214724  Z M 4.28498427672956 5.65816717791411  C 4.28498427672956 5.40378163343558  4.07419418238994 5.19684624233129  3.81205778301887 5.19684624233129  C 3.55127260220126 5.19684624233129  3.33913128930818 5.40378163343558  3.33913128930818 5.65816717791411  L 3.33913128930818 10.5020370015337  C 3.33913128930818 10.7564225460123  3.55127260220126 10.9633579371166  3.81205778301887 10.9633579371166  C 4.07284296383648 10.9633579371166  4.28498427672956 10.7564225460123  4.28498427672956 10.5020370015337  L 4.28498427672956 5.65816717791411  Z M 7.62249410377358 6.88264474693251  C 7.62249410377358 6.62825920245399  7.41170400943396 6.42132381134969  7.14956761006289 6.42132381134969  C 6.88878242924528 6.42132381134969  6.6766411163522 6.62825920245399  6.6766411163522 6.88264474693251  L 6.6766411163522 10.5020370015337  C 6.6766411163522 10.7564225460123  6.88878242924528 10.9633579371166  7.14956761006289 10.9633579371166  C 7.4103527908805 10.9633579371166  7.62249410377358 10.7564225460123  7.62249410377358 10.5020370015337  L 7.62249410377358 6.88264474693251  Z M 10.9600039308176 4.67621261503068  C 10.9600039308176 4.42182707055215  10.749213836478 4.21489167944785  10.4870774371069 4.21489167944785  C 10.2262922562893 4.21489167944785  10.0141509433962 4.42182707055215  10.0141509433962 4.67621261503067  L 10.0141509433962 10.5020370015337  C 10.0141509433962 10.7564225460123  10.2262922562893 10.9633579371166  10.4870774371069 10.9633579371166  C 10.7478626179245 10.9633579371166  10.9600039308176 10.7564225460123  10.9600039308176 10.5020370015337  L 10.9600039308176 4.67621261503068  Z M 9.95334610849057 2.53172929447853  C 9.95739976415094 2.78611483895705  10.1708922955975 2.99041411042945  10.4316774764151 2.98777799079755  C 10.6924626572327 2.98514187116564  10.9019015330189 2.77557036042945  10.8991990959119 2.52118481595092  L 10.8762283805031 0.476874041411044  L 10.8762283805031 0.47160180214724  C 10.8762283805031 0.463693443251534  10.8762283805031 0.454467024539878  10.8748771619497 0.446558665644172  L 10.8748771619497 0.439968366564418  C 10.8735259433962 0.418879409509203  10.8694722877358 0.399108512269939  10.8654186320755 0.378019555214724  C 10.8654186320755 0.376701495398774  10.8654186320755 0.375383435582823  10.864067413522 0.375383435582823  C 10.8586625393082 0.354294478527608  10.8519064465409 0.334523581288344  10.8451503537736 0.31475268404908  L 10.8451503537736 0.313434624233129  C 10.8370430424528 0.293663726993866  10.8275845125786 0.273892829754602  10.8167747641509 0.255439992331289  C 10.8167747641509 0.254121932515338  10.8154235455975 0.254121932515338  10.8154235455975 0.252803872699387  C 10.8100186713836 0.243577453987731  10.8046137971698 0.235669095092025  10.799208922956 0.22776073619632  C 10.799208922956 0.22776073619632  10.799208922956 0.226442676380369  10.7978577044025 0.226442676380369  C 10.7924528301887 0.218534317484663  10.7856967374214 0.209307898773007  10.7802918632075 0.201399539877301  L 10.7762382075472 0.197445360429448  L 10.7600235849057 0.177674463190185  L 10.7559699292453 0.173720283742332  C 10.749213836478 0.167129984662577  10.7424577437107 0.159221625766872  10.7357016509434 0.152631326687117  L 10.7302967767296 0.147359087423313  C 10.7248919025157 0.14208684815951  10.7181358097484 0.136814608895706  10.7127309355346 0.131542369631902  C 10.7113797169811 0.130224309815951  10.7086772798742 0.12890625  10.7073260613208 0.12758819018405  C 10.69921875 0.120997891104295  10.6924626572327 0.115725651840491  10.6843553459119 0.109135352760737  C 10.6830041273585 0.107817292944786  10.681652908805 0.106499233128835  10.6803016902516 0.106499233128835  C 10.6721943789308 0.101226993865031  10.6654382861635 0.0959547546012275  10.6573309748428 0.0906825153374236  C 10.6559797562893 0.0906825153374236  10.6559797562893 0.0893644555214729  10.6546285377358 0.0893644555214729  L 10.6262529481132 0.0735477377300618  L 10.6249017295597 0.0735477377300618  C 10.5951749213836 0.0577310199386505  10.5627456761006 0.0458684815950925  10.5289652122641 0.0366420628834361  L 10.4965359669811 0.0287337039877305  L 10.4951847484277 0.0287337039877305  L 10.466809158805 0.0247795245398778  C 10.4641067216981 0.0247795245398778  10.4627555031447 0.0247795245398778  10.4600530660377 0.0234614647239269  C 10.4492433176101 0.0221434049079762  10.4397847877358 0.020825345092025  10.4289750393082 0.020825345092025  L 8.14001080974843 0.020825345092025  C 7.87922562893082 0.020825345092025  7.66708431603774 0.22776073619632  7.66708431603774 0.482146280674847  C 7.66708431603774 0.736531825153375  7.87922562893082 0.943467216257669  8.14001080974843 0.943467216257669  L 9.17909787735849 0.943467216257669  L 6.37531937893082 3.43064608895706  L 4.35930129716981 1.46410084355828  C 4.18364288522013 1.29275306748466  3.90394064465409 1.28352664877301  3.71612126572327 1.44037576687117  L 0.166470125786163 4.42182707055215  C -0.0308077830188679 4.58790260736196  -0.053778498427673 4.87919382668712  0.116475039308176 5.0729486196319  C 0.209709119496855 5.17839340490797  0.342128537735849 5.23375191717791  0.474547955974843 5.23375191717791  C 0.583996658805031 5.23375191717791  0.69344536163522 5.19684624233129  0.782625786163522 5.12171683282209  L 3.99987716194969 2.4196942101227  L 6.02400255503145 4.39414781441718  C 6.20236340408805 4.5681317101227  6.49017295597484 4.57472200920245  6.6766411163522 4.40996453220859  L 9.94118514150943 1.51550517638037  L 9.95334610849057 2.53172929447853  Z " fill-rule="nonzero" fill="#cccccc" stroke="none" transform="matrix(1 0 0 1 1857 307 )" />
  </g>
</svg>