<?xml version="1.0" encoding="utf-8"?>
<svg version="1.1" xmlns:xlink="http://www.w3.org/1999/xlink" width="11px" height="11px" xmlns="http://www.w3.org/2000/svg">
  <g transform="matrix(1 0 0 1 -2429 -324 )">
    <path d="M 11 3.12675  C 11 2.80103213671875  10.7360589316406 2.53746428417969  10.4107142841797 2.53746428417969  C 10.0853892841797 2.53746428417969  9.82142856835938 2.80103213671875  9.82142856835938 3.12675  C 9.82142856835938 3.32624285253906  9.921175 3.50196785253906  10.0727196367188 3.60860893164063  L 7.88246248925781 5.40025357910156  L 5.59591606835937 1.3492875  C 5.87521785253906 1.30326428417969  6.08928571582031 1.062325  6.08928571582031 0.769607147460938  C 6.08928571582031 0.443889294921875  5.825325 0.180321431640625  5.5 0.180321431640625  C 5.174675 0.180321431640625  4.91071428417969 0.443889284179688  4.91071428417969 0.769607147460938  C 4.91071428417969 1.05656964746094  5.1159625 1.29481786328125  5.38721071582031 1.34738214746094  L 3.11600536328125 5.39911429492188  L 0.927280352539062 3.60860893164063  C 1.078825 3.50194821582031  1.17857143164063 3.32624285253906  1.17857143164063 3.12675  C 1.17857143164063 2.80103214746094  0.914610715820313 2.53746428417969  0.589285715820313 2.53746428417969  C 0.263960715820313 2.53746428417969  0 2.80103213671875  0 3.12675  C 0 3.45246786328125  0.263960715820312 3.71603571582031  0.589285715820313 3.71603571582031  C 0.608476784179687 3.71603571582031  0.626882147460938 3.71220536328125  0.64568036328125 3.71028036328125  L 2.03947856835938 10.2142857158203  L 8.96052142089844 10.2142857158203  L 10.3543196367187 3.71028036328125  C 10.3731178525391 3.71220536328125  10.3915428525391 3.71603571582031  10.4107142841797 3.71603571582031  C 10.7360392841797 3.71603571582031  11 3.45246786328125  11 3.12675  Z M 3.73330178417969 5.90436786328125  L 5.49310535253906 2.76573393164062  L 7.26518570507813 5.90552678417969  L 5.5 7.34957143164062  L 3.73330178417969 5.90436786328125  Z M 8.32519287402344 9.42857143164063  L 2.67480714746094 9.42857143164063  L 2.59040179492187 9.03571428417969  L 8.4095982265625 9.03571428417969  L 8.32519287402344 9.42857143164063  Z M 9.20222678417969 5.3354125  L 8.49363035253906 8.64285714746094  L 2.50638928417969 8.64285714746094  L 1.79779285253906 5.3354125  L 5.5 8.36471428417969  L 9.20222678417969 5.3354125  Z " fill-rule="nonzero" fill="#f69661" stroke="none" transform="matrix(1 0 0 1 2429 324 )" />
  </g>
</svg>