<?xml version="1.0" encoding="utf-8"?>
<svg version="1.1" xmlns:xlink="http://www.w3.org/1999/xlink" width="24px" height="24px" xmlns="http://www.w3.org/2000/svg">
  <g transform="matrix(1 0 0 1 -236 -947 )">
    <path d="M 15.2659793814433 18.0927835051546  L 14.0412371134021 16.8680412371134  C 13.9453608247423 16.7721649484536  13.7876288659794 16.7721649484536  13.6917525773196 16.8680412371134  L 10.0979381443299 20.4618556701031  C 8.4340206185567 22.1257731958763  5.62577319587629 22.3020618556701  3.78865979381443 20.4618556701031  C 1.94845360824742 18.6216494845361  2.12474226804124 15.8164948453608  3.78865979381443 14.1525773195876  L 7.38247422680412 10.5587628865979  C 7.47835051546392 10.4628865979381  7.47835051546392 10.3051546391753  7.38247422680412 10.2092783505155  L 6.15154639175258 8.97835051546392  C 6.05567010309278 8.88247422680412  5.8979381443299 8.88247422680412  5.8020618556701 8.97835051546392  L 2.20824742268041 12.5721649484536  C -0.408247422680411 15.1886597938144  -0.408247422680411 19.4226804123711  2.20824742268041 22.0360824742268  C 4.82474226804124 24.6494845360825  9.05876288659794 24.6525773195876  11.6721649484536 22.0360824742268  L 15.2659793814433 18.4422680412371  C 15.3618556701031 18.3463917525773  15.3618556701031 18.1886597938144  15.2659793814433 18.0927835051546  Z M 22.039175257732 11.6752577319588  C 24.6525773195876 9.05876288659794  24.6525773195876 4.82474226804123  22.039175257732 2.20824742268041  C 19.4226804123711 -0.408247422680411  15.1886597938144 -0.408247422680411  12.5752577319588 2.20824742268041  L 8.97835051546392 5.8020618556701  C 8.88247422680412 5.8979381443299  8.88247422680412 6.05567010309278  8.97835051546392 6.15154639175258  L 10.2061855670103 7.37938144329897  C 10.3020618556701 7.47525773195876  10.459793814433 7.47525773195876  10.5556701030928 7.37938144329897  L 14.1494845360825 3.78556701030928  C 15.8134020618557 2.12164948453608  18.6216494845361 1.94536082474227  20.4587628865979 3.78556701030928  C 22.298969072165 5.62577319587629  22.1226804123711 8.43092783505155  20.4587628865979 10.0948453608247  L 16.8649484536082 13.6886597938144  C 16.7690721649485 13.7845360824742  16.7690721649485 13.9422680412371  16.8649484536082 14.0381443298969  L 18.0958762886598 15.2690721649485  C 18.1917525773196 15.3649484536082  18.3494845360825 15.3649484536082  18.4453608247423 15.2690721649485  L 22.039175257732 11.6752577319588  Z M 16.379381443299 9.02783505154639  L 15.1577319587629 7.80309278350516  C 15.0618556701031 7.70721649484536  14.9041237113402 7.70721649484536  14.8082474226804 7.80309278350516  L 7.80309278350516 14.8051546391753  C 7.70721649484536 14.9010309278351  7.70721649484536 15.0587628865979  7.80309278350516 15.1546391752577  L 9.02783505154639 16.379381443299  C 9.12371134020619 16.4752577319588  9.28144329896907 16.4752577319588  9.37731958762887 16.379381443299  L 16.379381443299 9.37731958762887  C 16.4752577319588 9.28144329896907  16.4752577319588 9.12371134020619  16.379381443299 9.02783505154639  Z " fill-rule="nonzero" fill="#666666" stroke="none" transform="matrix(1 0 0 1 236 947 )" />
  </g>
</svg>