<?xml version="1.0" encoding="utf-8"?>
<svg version="1.1" xmlns:xlink="http://www.w3.org/1999/xlink" width="18px" height="18px" xmlns="http://www.w3.org/2000/svg">
  <g transform="matrix(1 0 0 1 -1219 -1974 )">
    <path d="M 17.838 9  C 17.838 8.0685  17.06175 7.3125  16.1055 7.3125  L 5.92425 7.3125  L 10.20375 3.03075  C 10.8797591972808 2.37250974201555  10.8948625069762 1.29111276782044  10.2375 0.614250000000002  C 9.91805428886032 0.302277681998787  9.48925372417803 0.127628303191203  9.04274248180603 0.127628303191203  C 8.58190001562346 0.127628303191203  8.14056580829301 0.313635839821974  7.81875 0.643500000000001  L 0.697499999999999 7.767  C 0.68175 7.7805  0.661499999999999 7.785  0.64575 7.80075  C 0.32579166964555 8.12374408559484  0.151828837385575 8.56352862883151  0.164249999999999 9.018  C 0.164249999999999 9.44775  0.321749999999999 9.8775  0.647999999999999 10.2015  C 0.661499999999999 10.215  0.679499999999998 10.2195  0.692999999999998 10.23075  L 7.81875 17.3565  C 8.496 18.0315  9.57825 18.04725  10.2375 17.388  C 10.8948625069762 16.7111372321796  10.8797591972808 15.6297402579844  10.20375 14.9715  L 5.922 10.6875  L 16.1055 10.6875  C 17.06175 10.6875  17.838 9.9315  17.838 9  Z " fill-rule="nonzero" fill="#999999" stroke="none" transform="matrix(1 0 0 1 1219 1974 )" />
  </g>
</svg>