<?xml version="1.0" encoding="utf-8"?>
<svg version="1.1" xmlns:xlink="http://www.w3.org/1999/xlink" width="35px" height="35px" xmlns="http://www.w3.org/2000/svg">
  <g transform="matrix(1 0 0 1 -1211 -1966 )">
    <path d="M 34.9534574468085 17.5  C 34.9534574468085 7.85871010638298  27.141289893617 0.0465425531914894  17.5 0.0465425531914894  C 7.85871010638298 0.0465425531914894  0.0465425531914894 7.85871010638298  0.0465425531914894 17.5  C 0.0465425531914894 27.141289893617  7.85871010638298 34.9534574468085  17.5 34.9534574468085  C 27.141289893617 34.9534574468085  34.9534574468085 27.141289893617  34.9534574468085 17.5  Z M 17.4999997919386 31.4627659574468  C 9.78857708818415 31.4627659574468  3.53723383449176 25.2114227037544  3.53723383449176 17.5  C 3.53723383449176 9.78857729624557  9.78857708818414 3.53723404255319  17.4999997919386 3.53723404255319  C 25.211422495693 3.53723404255319  31.4627657493854 9.78857729624557  31.4627657493854 17.5  C 31.4627657493854 25.2114227037544  25.211422495693 31.4627659574468  17.4999997919386 31.4627659574468  Z " fill-rule="nonzero" fill="#999999" stroke="none" transform="matrix(1 0 0 1 1211 1966 )" />
  </g>
</svg>