<?xml version="1.0" encoding="utf-8"?>
<svg version="1.1" xmlns:xlink="http://www.w3.org/1999/xlink" width="38px" height="47px" xmlns="http://www.w3.org/2000/svg">
  <defs>
    <filter x="343px" y="570px" width="38px" height="47px" filterUnits="userSpaceOnUse" id="filter107">
      <feOffset dx="1" dy="1" in="SourceAlpha" result="shadowOffsetInner" />
      <feGaussianBlur stdDeviation="2.5" in="shadowOffsetInner" result="shadowGaussian" />
      <feComposite in2="shadowGaussian" operator="atop" in="SourceAlpha" result="shadowComposite" />
      <feColorMatrix type="matrix" values="0 0 0 0 0  0 0 0 0 0  0 0 0 0 0  0 0 0 0.698039215686274 0  " in="shadowComposite" />
    </filter>
    <g id="widget108">
      <path d="M 361 610.042738504138  C 355.6 601.160916002547  347.5 595.831822501592  347.5 586.95  C 347.5 582.325714285714  350.2 574.5  361 574.5  C 371.8 574.5  374.5 582.325714285714  374.5 586.95  C 374.5 595.831822501592  366.4 601.160916002547  361 610.042738504138  Z " fill-rule="nonzero" fill="#009dd9" stroke="none" />
      <path d="M 361 611  C 355.4 601.75  347 596.2  347 586.95  C 347 582.14  349.8 574  361 574  C 372.2 574  375 582.14  375 586.95  C 375 596.2  366.6 601.75  361 611  Z M 361 609.085477008276  C 366.2 600.571832005093  374 595.463645003183  374 586.95  C 374 582.511428571429  371.4 575  361 575  C 350.6 575  348 582.511428571429  348 586.95  C 348 595.463645003183  355.8 600.571832005093  361 609.085477008276  Z " fill-rule="nonzero" fill="#ffffff" stroke="none" />
    </g>
  </defs>
  <g transform="matrix(1 0 0 1 -343 -570 )">
    <use xlink:href="#widget108" filter="url(#filter107)" />
    <use xlink:href="#widget108" />
  </g>
</svg>