<?xml version="1.0" encoding="utf-8"?>
<svg version="1.1" xmlns:xlink="http://www.w3.org/1999/xlink" width="35px" height="35px" xmlns="http://www.w3.org/2000/svg">
  <g transform="matrix(1 0 0 1 -2454 -2032 )">
    <path d="M 2471.5 2032  C 2481.3 2032  2489 2039.7  2489 2049.5  C 2489 2059.3  2481.3 2067  2471.5 2067  C 2461.7 2067  2454 2059.3  2454 2049.5  C 2454 2039.7  2461.7 2032  2471.5 2032  Z " fill-rule="nonzero" fill="#ffffff" stroke="none" />
    <path d="M 2471.5 2032.5  C 2481.02 2032.5  2488.5 2039.98  2488.5 2049.5  C 2488.5 2059.02  2481.02 2066.5  2471.5 2066.5  C 2461.98 2066.5  2454.5 2059.02  2454.5 2049.5  C 2454.5 2039.98  2461.98 2032.5  2471.5 2032.5  Z " stroke-width="1" stroke="#797979" fill="none" />
  </g>
</svg>