<?xml version="1.0" encoding="utf-8"?>
<svg version="1.1" xmlns:xlink="http://www.w3.org/1999/xlink" width="12px" height="15px" xmlns="http://www.w3.org/2000/svg">
  <g transform="matrix(1 0 0 1 -2468 -2045 )">
    <path d="M 0.0407804782774378 10.2662626361269  C 0.0407804782774378 8.91131315104167  0.048975600228659 7.55636363636364  0.0351219512195114 6.20242424242424  C 0.0314146246189023 5.80808081794507  0.168585365853659 5.60181818181818  0.538536585365853 5.4692929391572  C 1.95082925876524 4.96646466619318  2.78595122903963 3.90222224195076  3.19648779535061 2.44363636363636  C 3.33931706364329 1.93616160629735  3.4708292492378 1.42080809067235  3.67024390243902 0.937171727035986  C 3.99356098513719 0.153333333333333  4.58770732660061 -0.122222212357954  5.41268291730183 0.0600000000000001  C 6.04936583460366 0.201212121212122  6.45073170731707 0.764444454308713  6.45717073170731 1.55313130326705  C 6.46556098513719 2.55878787878788  6.45814633193597 3.56444442471591  6.46087805830792 4.57010100023674  C 6.46282928734756 5.12101009114583  6.55531709222561 5.23414139441288  7.09853657583841 5.24  C 8.19121949314024 5.25252524266099  9.28487803925305 5.27838384824811  10.3758048875762 5.23414142400568  C 11.3471219702744 5.19494951467803  12.0532682926829 5.85030303030303  11.8085853658537 6.97111112097538  C 11.5157073075457 8.31353536339962  11.1459512195122 9.63878787878788  10.7845853563262 10.9648484848485  C 10.562146331936 11.7824242424242  10.3006829268293 12.5894949396307  10.0448780487805 13.3965656664299  C 9.70653658536585 14.464646484375  9.07551219512195 14.9367676964962  8.00975610708841 14.9367676669034  L 0.846829258765244 14.9367676669034  C 0.0776585270579249 14.9367676669034  0.0396097465701214 14.8983838186553  0.0396097465701214 14.12  C 0.04058534679878 12.8361616062973  0.04058534679878 11.5513131214489  0.0405853753810963 10.2662626361269  Z " fill-rule="nonzero" fill="#ff8e12" stroke="none" transform="matrix(1 0 0 1 2468 2045 )" />
  </g>
</svg>