<?xml version="1.0" encoding="utf-8"?>
<svg version="1.1" xmlns:xlink="http://www.w3.org/1999/xlink" width="15px" height="15px" xmlns="http://www.w3.org/2000/svg">
  <g transform="matrix(1 0 0 1 -2464 -2045 )">
    <path d="M 2.46666666666667 6.71676766690341  C 2.46868687855114 7.8892929095644  2.46868687855114 9.0630303030303  2.4676767578125 10.2365656664299  C 2.4676767578125 11.5492929391572  2.47050503077652 12.8630303030303  2.46565657552083 14.1757575757576  C 2.46363636363636 14.8216161517519  2.34383839370265 14.9357575757576  1.71151515151515 14.9375757575758  C 1.53010100023674 14.9385858487216  1.34868687855114 14.9385858487216  1.16626263612689 14.9375757575758  C 0.424646484375 14.9337373638731  0.0723232421875002 14.5882828184186  0.0684848484848482 13.8282828184186  C 0.0608080906723486 12.46  0.0656565755208329 11.0907070608428  0.0656565755208329 9.72121212121212  C 0.0656565755208329 8.71555554569128  0.061818181818182 7.70989899976326  0.0676767578124997 6.70424242424242  C 0.0723232125946969 5.90505051491477  0.459191909327651 5.5230303030303  1.24686869673295 5.52020203006629  C 2.46666666666667 5.5153535452178  2.46666666666667 5.5153535452178  2.46666666666667 6.71676766690341  Z M 8.6876767578125 14.9375757575758  C 12.3888888790246 13.3620202118845  14.9854545454545 9.69050506036932  14.9854545454545 5.41353536339962  C 14.9854545454545 5.37717172703599  14.9836363636364 5.3416161813447  14.9826262724905 5.30525251538826  C 14.786832884061 5.24954123838987  14.5833831497156 5.22553376757216  14.38 5.23414142400568  C 13.2505050603693 5.27838384824811  12.1181818181818 5.2523232421875  10.986868696733 5.24  C 10.4254545454545 5.23414142400568  10.3284848484848 5.12080809067235  10.3266666666667 4.57010100023674  C 10.3238383937027 3.56444442471591  10.3315151515152 2.55878787878788  10.3226262724905 1.55313130326705  C 10.3161616358902 0.764444424715911  9.89959596946023 0.201212121212124  9.24141415127841 0.0602020300662894  C 8.38727272727272 -0.123232303503788  7.77212121212121 0.153131332859851  7.43737372750947 0.936969696969697  C 7.23090909090909 1.42080809067235  7.09474745501894 1.9369696969697  6.94686869673295 2.44363636363636  C 6.52181818181818 3.90323233309659  5.65737375710227 4.96646463660038  4.19474748461174 5.4692929391572  C 3.81090909090909 5.60181818181818  3.66888890861742 5.80808081794507  3.6737373638731 6.20242424242424  C 3.68828281841856 7.55737372750947  3.67959593986742 8.91151515151515  3.67959596946023 10.2662626361269  L 3.67959596946023 14.1210100911458  C 3.67959596946023 14.8991919093277  3.71878787878788 14.9375757575758  4.5153535452178 14.9375757575758  L 8.6876767578125 14.9375757575758  Z " fill-rule="nonzero" fill="#fca315" stroke="none" transform="matrix(1 0 0 1 2464 2045 )" />
  </g>
</svg>