<?xml version="1.0" encoding="utf-8"?>
<svg version="1.1" xmlns:xlink="http://www.w3.org/1999/xlink" width="2px" height="2px" xmlns="http://www.w3.org/2000/svg">
  <g transform="matrix(1 0 0 1 -2476 -2040 )">
    <path d="M 0.931619056919642 1.37542857142857  C 0.918319074107883 1.45517058252222  0.91200938361348 1.53592187711313  0.912761914062502 1.6167619140625  C 0.912761914062502 1.70742857142857  0.919619056919645 1.79428571428572  0.931619056919642 1.85828571428571  C 0.943619056919642 1.92247619977679  0.96 1.95847619977679  0.977142857142858 1.95847619977679  C 0.994285714285715 1.95847619977679  1.01066665736607 1.92228571428571  1.02266665736607 1.85828571428571  C 1.03466665736607 1.79428571428572  1.04152380022321 1.70742857142857  1.04152380022321 1.6167619140625  C 1.04152380022321 1.52628571428572  1.03466665736607 1.43942857142857  1.02266665736607 1.37542857142857  C 1.01066665736607 1.3112380859375  0.994285714285715 1.2752380859375  0.977142857142858 1.2752380859375  C 0.96 1.2752380859375  0.943619056919642 1.31142857142857  0.931619056919642 1.37542857142857  Z M 1.1127619140625 1.35504762834821  C 1.13428571428572 1.41657142857143  1.17180954241072 1.49523811383929  1.21714285714286 1.57371428571429  C 1.23961905691964 1.61257142857143  1.2632380859375 1.65009522879464  1.28685714285714 1.68438094308036  C 1.31028571428571 1.71866665736607  1.33314285714286 1.74895237165179  1.35428571428571 1.77333334263393  C 1.3752380859375 1.79790477120536  1.39409522879464 1.81619048549107  1.40933334263393 1.82704762834821  C 1.4247619140625 1.83809525669643  1.43638097098214 1.841523828125  1.44361905691964 1.83733334263393  C 1.45104762834821 1.83295239955357  1.45390477120536 1.82114285714286  1.452 1.80247619977679  C 1.44861173811388 1.7769439609617  1.44228404493567 1.75188884637789  1.43314285714286 1.72780951450893  C 1.42057368858717 1.69274949681737  1.40607536441332 1.65841136061616  1.38971428571429 1.62495237165179  C 1.37084322412871 1.58566735329033  1.35051159812467 1.54710080053385  1.3287619140625 1.50933334263393  C 1.28897311807097 1.43885127428188  1.24308323647561 1.3719922600111  1.19161905691964 1.30952380022321  C 1.14914285714286 1.26  1.11695239955357 1.23714285714286  1.10209522879464 1.24571428571429  C 1.08742857142857 1.25428571428572  1.0912380859375 1.29352380022322  1.1127619140625 1.35504762834821  Z M 1.26190477120536 1.248  C 1.31142857142857 1.29047619977679  1.38323811383929 1.33980951450893  1.46171428571429 1.38514285714286  C 1.54019048549107 1.43028571428571  1.61866665736607 1.46780951450893  1.68019048549107 1.48952380022321  C 1.74171428571429 1.51104760044643  1.78114285714286 1.51485714285714  1.78971428571429 1.5  C 1.79809522879464 1.48533334263393  1.7752380859375 1.45314285714286  1.72571428571428 1.41047619977678  C 1.66333627719399 1.35903758689666  1.59653706800228 1.31320873604317  1.52609522879464 1.27352380022322  C 1.45640086627633 1.23239912422484  1.38323117609812 1.19747143402416  1.30742857142857 1.16914285714286  C 1.24590477120536 1.14761905691964  1.20666665736607 1.14380951450893  1.19809522879465 1.15847619977679  C 1.18952380022322 1.17333334263393  1.21257142857143 1.205523828125  1.26190477120536 1.248  Z M 1.33752380022321 0.989142857142857  C 1.27333331473214 1.00114285714286  1.23752380022322 1.01752380022321  1.23752380022322 1.03447619977679  C 1.23752380022322 1.05161905691964  1.27333331473214 1.068  1.33752380022321 1.08019048549107  C 1.40152380022321 1.09219048549107  1.48838094308035 1.09885714285714  1.57904762834821 1.09885714285714  C 1.669523828125 1.09885714285714  1.75638097098214 1.09219048549107  1.82057142857142 1.08  C 1.88457142857143 1.068  1.92057142857142 1.05161905691964  1.92057142857142 1.03447619977679  C 1.92057142857142 1.01733334263393  1.88457142857142 1.00114285714286  1.82057142857142 0.988952371651785  C 1.74077004675316 0.97561417706402  1.659952154472 0.96930426251833  1.57904762834821 0.970095228794643  C 1.48838097098214 0.970095228794643  1.401523828125 0.976952371651785  1.33752380022321 0.989142857142857  Z M 1.27428571428571 0.818666657366071  C 1.2247619140625 0.860952371651785  1.20190477120536 0.893142857142856  1.21028571428571 0.908  C 1.21466665736607 0.9152380859375  1.22647619977679 0.918095228794643  1.24514285714285 0.916380943080357  C 1.264 0.914476171875  1.28933334263393 0.908  1.31980951450893 0.897333342633928  C 1.35028571428571 0.886666685267857  1.38514285714286 0.872  1.42266665736607 0.854095228794642  C 1.50143108720977 0.816475022992278  1.57715133203252 0.772787821883815  1.64914285714286 0.72342857142857  C 1.68342857142857 0.699809514508928  1.71352380022321 0.676952371651785  1.73809522879464 0.655809514508929  C 1.75797574139214 0.639497875497194  1.77599013568602 0.62103632162587  1.79180951450893 0.600761914062499  C 1.80266665736607 0.585523828125  1.80609522879464 0.573714285714286  1.80190477120535 0.566476199776785  C 1.79333334263393 0.551619056919642  1.75409525669643 0.555428571428571  1.69257142857143 0.576952371651785  C 1.61676230498901 0.605342098929079  1.54359242370597 0.640333620299253  1.47390477120536 0.681523800223214  C 1.40345563599813 0.721269391215327  1.33665619472161 0.767162134992271  1.27428571428571 0.818666657366071  Z M 1.11390477120536 0.776952371651786  C 1.11219048549107 0.795809514508929  1.11504762834822 0.807428571428572  1.12228571428571 0.811809514508929  C 1.12971428571429 0.816  1.14133334263393 0.812571428571429  1.1567619140625 0.801714285714286  C 1.172 0.790666657366071  1.19066668526786 0.772380943080357  1.21180951450893 0.748  C 1.23584483687487 0.719564011191472  1.25835273569674 0.689871390709001  1.2792380859375 0.659047628348215  C 1.32870881637492 0.587024844662538  1.37246169320164 0.511237468102806  1.41009522879464 0.432380943080357  C 1.428 0.395047600446428  1.44266665736607 0.359999999999999  1.45333334263393 0.329523800223214  C 1.464 0.299047600446428  1.47047619977679 0.273904743303571  1.47219048549107 0.255047628348214  C 1.47409525669643 0.236190485491071  1.47123811383929 0.224571428571429  1.46380951450893 0.220190485491072  C 1.45657142857143 0.216  1.44495237165179 0.219428571428571  1.42952380022321 0.230476199776784  C 1.40921788109596 0.24618793883025  1.39075162533418 0.264143020909189  1.37447619977679 0.284  C 1.35037590046547 0.312450162722098  1.3278654243322 0.34220977523726  1.30704762834822 0.373142857142857  C 1.25759414630521 0.445043457336498  1.21384160764078 0.520702869175427  1.17619048549107 0.599428571428572  C 1.15828571428571 0.636952371651787  1.14361905691964 0.671809514508929  1.13295237165179 0.702285714285715  C 1.12228571428571 0.7327619140625  1.11580951450893 0.758285714285714  1.11390477120536 0.776952371651786  Z M 0.951238085937498 0.1912380859375  C 0.937832081133633 0.271031164691029  0.931521698165791 0.351855065897806  0.932380943080355 0.4327619140625  C 0.932380943080355 0.523238113839286  0.939047600446429 0.610095256696428  0.951238085937498 0.674095228794642  C 0.963238085937499 0.738285714285714  0.979619029017856 0.774285714285713  0.996761914062497 0.774285714285713  C 1.01371428571429 0.774285714285713  1.03009525669643 0.738095228794642  1.04228571428571 0.674095228794642  C 1.05428571428571 0.610095228794642  1.06114285714286 0.5232380859375  1.06114285714286 0.4327619140625  C 1.06114285714286 0.342095256696429  1.05428571428571 0.255238113839286  1.04228571428571 0.1912380859375  C 1.03009522879464 0.127047600446428  1.01371428571429 0.0912380859374997  0.996761914062497 0.0912380859374997  C 0.979619056919639 0.0912380859374997  0.963238113839286 0.127047600446428  0.951238085937498 0.1912380859375  Z M 0.539047628348214 0.319047628348215  C 0.560571428571429 0.380571428571429  0.598095256696427 0.459238113839286  0.64342857142857 0.537523800223214  C 0.665904771205358 0.576380943080357  0.689523800223213 0.614095228794643  0.713142857142856 0.648380943080358  C 0.736571428571429 0.682666657366071  0.759619056919645 0.712761886160714  0.780571428571428 0.737333342633928  C 0.801714285714285 0.761714285714286  0.82038094308036 0.779999999999999  0.835619056919642 0.791047628348214  C 0.851047628348214 0.801904771205357  0.862666685267856 0.805333342633928  0.870095228794643 0.801142857142857  C 0.877333314732145 0.796952371651786  0.880190457589285 0.785142857142857  0.878476199776786 0.766285714285714  C 0.874898396061099 0.740832765249141  0.868510177787065 0.715854840874685  0.85942857142857 0.691809514508928  C 0.846848825157321 0.656781790350215  0.83241576176126 0.622447623344286  0.816190485491071 0.588952371651786  C 0.797335673508578 0.549562547572095  0.776938958080889 0.510929519584247  0.755047628348214 0.473142857142858  C 0.715270151583614 0.402713620784681  0.669379281629119 0.335916906960964  0.617904771205356 0.273523800223214  C 0.57542857142857 0.224  0.543238113839282 0.201142857142857  0.528380943080354 0.209523800223214  C 0.513714285714282 0.218095228794643  0.517523800223212 0.257523800223214  0.539047628348214 0.319047628348215  Z M 0.246476199776786 0.638095228794644  C 0.296 0.680380943080358  0.367809542410713 0.729714285714286  0.446285714285714 0.775047628348215  C 0.524761914062501 0.820380970982144  0.603238085937501 0.857904771205357  0.6647619140625 0.879428571428572  C 0.726285714285715 0.900952371651786  0.765714285714284 0.9047619140625  0.774285714285717 0.890095228794643  C 0.782666657366073 0.875238085937501  0.75980951450893 0.843047600446429  0.710285714285711 0.800571428571429  C 0.647887875340392 0.749103196869116  0.581091730242532 0.70321271764229  0.510666657366069 0.663428571428572  C 0.440977838000841 0.622293484611854  0.367807213633094 0.587365348474033  0.292000000000002 0.559047628348216  C 0.230476199776786 0.537523828125001  0.191047628348217 0.533714285714286  0.182666657366074 0.54857142857143  C 0.174095228794645 0.563238085937501  0.197142857142856 0.595428571428572  0.246476199776786 0.638095228794644  Z M 0.153333342633926 0.966857142857143  C 0.0893333426339292 0.978857142857143  0.0533333426339279 0.995047628348214  0.0533333426339279 1.01219048549107  C 0.0533333426339279 1.02933334263393  0.0893333426339292 1.04571428571429  0.153333342633926 1.05790477120536  C 0.217333342633927 1.06990477120536  0.304190485491071 1.07657142857143  0.39485714285714 1.07657142857143  C 0.485333342633928 1.07657142857143  0.572190485491071 1.06990477120536  0.636380943080354 1.05771428571429  C 0.700380943080355 1.04571428571429  0.736380943080353 1.02914285714286  0.736380943080353 1.01219048549107  C 0.736380943080353 0.995047628348214  0.700380943080351 0.978857142857142  0.636380943080354 0.966666657366072  C 0.556580873837642 0.95331773945538  0.475762036627661 0.947007751133698  0.39485714285714 0.947809514508929  C 0.304190485491071 0.947809514508929  0.217333342633927 0.954666657366071  0.153333342633926 0.966857142857143  Z M 0.171809514508928 1.48285714285714  C 0.180380943080357 1.49771428571429  0.219619029017857 1.49390477120536  0.281142857142856 1.47238094308036  C 0.342666657366071 1.45085714285714  0.421333342633927 1.41333331473214  0.499809514508927 1.368  C 0.578285714285715 1.32266665736607  0.65009522879464 1.27333334263393  0.69942857142857 1.23085714285714  C 0.748952371651784 1.18838094308036  0.771809514508931 1.15619048549107  0.763238085937498 1.14133334263393  C 0.754857142857142 1.12666668526786  0.715619029017854 1.13047619977679  0.653904771205358 1.152  C 0.592380970982142 1.17352380022321  0.513714285714286 1.21104762834821  0.435428571428568 1.25638094308036  C 0.364930394284853 1.29614389513956  0.298069185649536 1.34203528928467  0.235619056919644 1.39352380022322  C 0.186095256696425 1.436  0.163238113839282 1.46819045758929  0.171809514508928 1.48304762834822  Z M 0.502476199776786 1.79485714285714  C 0.5007619140625 1.81371428571429  0.503619056919644 1.82552380022322  0.510857142857142 1.82971428571429  C 0.518285714285716 1.83390477120536  0.529904771205358 1.83047619977679  0.545142857142857 1.81961905691964  C 0.560571428571429 1.80857142857143  0.579428571428569 1.79047619977679  0.600380943080357 1.76590477120536  C 0.621333314732145 1.74133334263393  0.644190457589287 1.71123811383929  0.66780951450893 1.67695237165179  C 0.717174963168865 1.60492972374814  0.760923236060482 1.52921401458389  0.798666657366072 1.45047619977679  C 0.81657142857143 1.41295239955357  0.831238085937502 1.37809525669643  0.841904771205358 1.34761905691964  C 0.852571428571431 1.31714285714286  0.85904762834822 1.29180954241072  0.860761914062501 1.27295237165179  C 0.86266668526786 1.25428571428571  0.859809542410716 1.242476171875  0.852571428571431 1.23809522879464  C 0.845142857142861 1.23390474330357  0.833523800223215 1.23733331473214  0.818095228794647 1.24838094308036  C 0.802857142857143 1.2592380859375  0.784 1.27752380022322  0.763047628348216 1.30209522879464  C 0.742095256696432 1.326476171875  0.719238113839286 1.35676188616072  0.695619056919644 1.39104762834822  C 0.646262084506759 1.46300914860674  0.602513974976363 1.53866090133178  0.564761914062501 1.61733334263393  C 0.546857142857143 1.65485714285714  0.532190485491071 1.68990477120536  0.521523800223215 1.72019048549107  C 0.510857142857142 1.75066668526786  0.504380943080357 1.77619048549107  0.502476199776786 1.79485714285714  Z " fill-rule="nonzero" fill="#f07ffd" stroke="none" transform="matrix(1 0 0 1 2476 2040 )" />
  </g>
</svg>