<?xml version="1.0" encoding="utf-8"?>
<svg version="1.1" xmlns:xlink="http://www.w3.org/1999/xlink" width="3px" height="3px" xmlns="http://www.w3.org/2000/svg">
  <g transform="matrix(1 0 0 1 -2470 -2039 )">
    <path d="M 1.55824998779297 0.124999987792969  C 2.32249998779297 0.124999987792969  2.94324997558594 0.742499999999999  2.94325001220703 1.49925  C 2.94325001220703 2.25625001220703  2.32250002441406 2.87350001220703  1.55824998779297 2.87350001220703  C 0.793999951171872 2.87350001220703  0.172999987792968 2.256  0.172999987792968 1.49925  C 0.172999987792968 0.742249987792968  0.79399998779297 0.124999987792969  1.55800001220703 0.124999987792969  Z M 0.536749987792968 1.4955  C 0.536749987792968 2.05400002441406  0.996 2.50600001220703  1.55824998779297 2.50600001220703  C 2.12049997558594 2.50600001220703  2.57974998779297 2.05400002441406  2.57974998779297 1.4955  C 2.57974998779297 0.936999975585937  2.12049997558594 0.484999987792968  1.55824998779297 0.484999987792968  C 0.995999999999997 0.484999987792968  0.536749987792968 0.936999975585937  0.536749987792968 1.4955  Z " fill-rule="nonzero" fill="#e62a52" stroke="none" transform="matrix(1 0 0 1 2470 2039 )" />
  </g>
</svg>