<?xml version="1.0" encoding="utf-8"?>
<svg version="1.1" xmlns:xlink="http://www.w3.org/1999/xlink" width="300px" height="126px" xmlns="http://www.w3.org/2000/svg">
  <g transform="matrix(1 0 0 1 -98 -2007 )">
    <path d="M 98 2007  L 398 2007  L 398 2133  L 98 2133  L 98 2007  " fill-rule="nonzero" fill="#cccccc" stroke="none" />
    <path d="M 107 2016  L 389 2016  L 389 2124  L 107 2124  L 107 2016  " fill-rule="nonzero" fill="#ffffff" stroke="none" />
    <path d="M 263.45 2044.8  C 258.158 2044.8  254 2040.642  254 2035.35  C 254 2030.058  258.158 2025.9  263.45 2025.9  C 268.742 2025.9  272.9 2030.058  272.9 2035.35  C 272.9 2040.642  268.742 2044.8  263.45 2044.8  " fill-rule="nonzero" fill="#cccccc" stroke="none" />
    <path d="M 110 2121  L 110 2064.9  L 179 2039.4  L 275.6 2095.296  L 330.8 2054.7  L 386 2095.296  L 386 2121  L 110 2121  " fill-rule="nonzero" fill="#169bd5" stroke="none" />
  </g>
</svg>