<?xml version="1.0" encoding="utf-8"?>
<svg version="1.1" xmlns:xlink="http://www.w3.org/1999/xlink" width="15px" height="17px" xmlns="http://www.w3.org/2000/svg">
  <g transform="matrix(1 0 0 1 -2718 -2043 )">
    <path d="M 2.43717948717949 16.797803030303  C 2.2025641025641 16.9214393939394  1.94871794871795 16.9806818181818  1.69615384615385 16.9806818181818  C 1.32564102564103 16.9806818181818  0.957692307692307 16.8518939393939  0.646153846153845 16.6007575757576  C 0.123076923076922 16.1783333333333  -0.0987179487179491 15.5215151515151  0.0679487179487172 14.8865909090909  C 0.20128205128205 14.3791666666667  0.907692307692307 11.7956818181818  1.76666666666667 10.7280303030303  C 2.16410256410256 10.2334848484848  2.82948717948718 9.95015151515151  3.59358974358974 9.95015151515151  L 3.59487179487179 9.95015151515151  C 4.28717948717949 9.95015151515151  4.96794871794872 10.1793939393939  5.46025641025641 10.5799242424242  C 5.46282051282051 10.5825  5.46538461538461 10.5837878787879  5.46794871794872 10.5863636363636  C 5.47051282051282 10.5876515151515  5.47179487179487 10.5902272727273  5.47435897435897 10.5915151515151  C 6.47564102564102 11.4041666666667  6.97051282051282 13.1801515151515  6.10769230769231 14.2516666666667  C 5.44615384615384 15.0733333333333  3.71794871794872 16.1371212121212  2.43717948717949 16.797803030303  Z M 4.47435897435897 11.7686363636364  C 4.25897435897436 11.6012121212121  3.92307692307692 11.4968939393939  3.5948717948718 11.4968939393939  C 3.59358974358974 11.4968939393939  3.59358974358974 11.4968939393939  3.5948717948718 11.4968939393939  C 3.31025641025641 11.4968939393939  3.06282051282051 11.5767424242424  2.96282051282051 11.7003787878788  C 2.55384615384615 12.2090909090909  1.97435897435898 13.6824242424242  1.55512820512821 15.2806818181818  C 1.54102564102564 15.3334848484848  1.58846153846154 15.3785606060606  1.60897435897436 15.3965909090909  C 1.63076923076923 15.4133333333333  1.68461538461538 15.4506818181818  1.73333333333333 15.4249242424242  C 3.15 14.6934090909091  4.51666666666667 13.7712878787879  4.91025641025641 13.2818939393939  C 5.13589743589743 13.0024242424242  4.96923076923077 12.187196969697  4.52435897435897 11.8098484848485  C 4.51794871794872 11.804696969697  4.51153846153846 11.8008333333333  4.50641025641026 11.7956818181818  C 4.5025641025641 11.7931060606061  4.49871794871795 11.7892424242424  4.49487179487179 11.7866666666667  C 4.48846153846154 11.7802272727273  4.48076923076923 11.7750757575758  4.47435897435897 11.7686363636364  Z M 5.51153846153846 13.7674242424242  L 5.51025641025641 13.7674242424242  L 5.51153846153846 13.7674242424242  Z M 5.39102564102564 10.5335606060606  C 5.39230769230769 10.5335606060606  5.39102564102564 10.5335606060606  5.39102564102564 10.5335606060606  C 5.39102564102564 10.5335606060606  5.39230769230769 10.5335606060606  5.39102564102564 10.5335606060606  Z M 5.38974358974359 10.5335606060606  C 5.39102564102564 10.5335606060606  5.39102564102564 10.5335606060606  5.38974358974359 10.5335606060606  C 5.39102564102564 10.5335606060606  5.39102564102564 10.5335606060606  5.38974358974359 10.5335606060606  Z M 14.9448717948718 3.23386363636364  C 14.9448717948718 5.00984848484849  13.5076923076923 6.45484848484849  11.7384615384615 6.45484848484849  C 9.97051282051282 6.45484848484849  8.53205128205128 5.00984848484849  8.53205128205128 3.23386363636364  C 8.53205128205128 1.45787878787879  9.97051282051282 0.012878787878789  11.7384615384615 0.012878787878789  C 13.5064102564103 0.012878787878789  14.9448717948718 1.45787878787879  14.9448717948718 3.23386363636364  Z M 13.4064102564103 3.23257575757576  C 13.4064102564103 2.30916666666667  12.6589743589744 1.55704545454545  11.7384615384615 1.55704545454545  C 10.8179487179487 1.55704545454545  10.0705128205128 2.30916666666667  10.0705128205128 3.23257575757576  C 10.0705128205128 4.15598484848485  10.8192307692308 4.90810606060606  11.7384615384615 4.90810606060606  C 12.6589743589744 4.90810606060606  13.4064102564103 4.15598484848485  13.4064102564103 3.23257575757576  Z " fill-rule="nonzero" fill="#f39800" stroke="none" transform="matrix(1 0 0 1 2718 2043 )" />
  </g>
</svg>