<?xml version="1.0" encoding="utf-8"?>
<svg version="1.1" xmlns:xlink="http://www.w3.org/1999/xlink" width="21px" height="19px" xmlns="http://www.w3.org/2000/svg">
  <g transform="matrix(1 0 0 1 -124 -1258 )">
    <path d="M 20.9102543401545 9.49272405340021  C 20.9102543401545 14.686350501598  16.2400616554954 18.9115255992543  10.5 18.9115255992543  C 4.75993834450462 18.9115255992543  0.0897456598455251 14.6863289106889  0.0897456598455251 9.49272405340021  C 0.0897456598455251 4.2991191961115  4.75991450417259 0.0739009166370738  10.5 0.0739009166370738  C 16.2400854958274 0.0739009166370738  20.9102543401545 4.29909760520242  20.9102543401545 9.49272405340021  Z M 19.918819712136 9.49272405340021  C 19.918819712136 4.79382014160156  15.6935015358665 0.97093476895419  10.5 0.97093476895419  C 5.30649846413352 0.97093476895419  1.08118028786399 4.79382012051669  1.08118028786399 9.49272405340021  C 1.08118028786399 14.1916279862837  5.30647462380149 18.0145133167614  10.5 18.0145133167614  C 15.6935253761985 18.0145133167614  19.918819712136 14.1916279651989  19.918819712136 9.49272405340021  Z " fill-rule="nonzero" fill="#ff713c" stroke="none" transform="matrix(1 0 0 1 124 1258 )" />
  </g>
</svg>