<?xml version="1.0" encoding="utf-8"?>
<svg version="1.1" xmlns:xlink="http://www.w3.org/1999/xlink" width="12px" height="12px" xmlns="http://www.w3.org/2000/svg">
  <g transform="matrix(1 0 0 1 -2464 -2045 )">
    <path d="M 2.53797403612013 6.6486  C 2.53901298701299 5.46020000976563  2.53797403612013 5.45919999023437  1.28457141842533 5.46399999023438  C 0.474181808035713 5.46679998046875  0.0752207690746752 5.84599998046875  0.0714805093344154 6.63639999023438  C 0.0654545454545457 7.632  0.0694025771103901 8.62759998046875  0.069402607548701 9.62319999023438  C 0.069402607548701 10.3536  0.0685714285714282 11.0841999902344  0.0685714285714282 11.8148000097656  C 0.651844145698052 11.9098000195312  1.25090908076299 11.9630000097656  1.86181817167208 11.9630000097656  C 2.08997401582792 11.9630000097656  2.31480517451299 11.9534000097656  2.53901298701299 11.9402000097656  C 2.53901298701299 11.3378000097656  2.53797403612013 10.7356000195312  2.53797403612013 10.1331999902344  L 2.53797403612013 6.6486  Z M 3.78472728287338 11.7938000097656  C 7.53911688311688 11.1336  10.6067532467532 8.57900000976563  11.8740779220779 5.1942  C 11.6827012987013 5.19219999023437  11.4921558543019 5.1894  11.3005714285714 5.1876  C 10.7233246753247 5.18180000976562  10.6235844155844 5.06960000976563  10.6217142857143 4.52439999023438  C 10.6185974025974 3.52879998046875  10.6264934963474 2.5332  10.6175584517045 1.53759999023438  C 10.6107013088474 0.756799980468752  10.1824415685877 0.199200000000003  9.50524675324676 0.0596000097656265  C 8.62690909090909 -0.12199998046875  7.99418181818182 0.151600019531252  7.64966234780844 0.9276  C 7.43771429586039 1.40660000976563  7.29745455560065 1.9176  7.14535065949675 2.4192  C 6.70815584415585 3.86420000976563  5.8188052049513 4.91679999023438  4.31459741274351 5.41460000976562  C 3.91979220779221 5.5458  3.77371430600649 5.75000000976562  3.77849351663961 6.1404  C 3.79345455560065 7.48179999023438  3.78472728287338 8.8224  3.78472728287338 10.1636000097656  L 3.78472728287338 11.7938000097656  Z " fill-rule="nonzero" fill="#fcb138" stroke="none" transform="matrix(1 0 0 1 2464 2045 )" />
  </g>
</svg>