<?xml version="1.0" encoding="utf-8"?>
<svg version="1.1" xmlns:xlink="http://www.w3.org/1999/xlink" width="9px" height="9px" xmlns="http://www.w3.org/2000/svg">
  <g transform="matrix(1 0 0 1 -2464 -2045 )">
    <path d="M 3.52606450667843 7.85828571428571  C 6.29709677419355 6.3855  8.35277417464718 3.5275714390346  8.9641935578377 0.0953571533203138  C 8.92782669924579 0.0831193192319008  8.89102153891961 0.0725389851913322  8.85387097719254 0.0636428571428573  C 8.03554838709677 -0.130714296177454  7.4461935483871 0.1624285609654  7.12548386151714 0.994071439034599  C 6.92767741935484 1.5070714390346  6.7972257875504 2.05478572474888  6.65554839654738 2.592  C 6.24832258064516 4.14021429617746  5.41993549332157 5.26799998953683  4.01883871912802 5.80135715332031  C 3.65109677419355 5.94192857142857  3.51503227696572 6.16071429617745  3.51967740990423 6.579  C 3.52354836819556 7.00542858189174  3.52529030367943 7.43185713239397  3.52606450667843 7.85828571428571  Z M 2.36496774193548 7.1235  C 2.36496774193548 5.85021429617746  2.36400000945061 5.84914284667969  1.19651611958165 5.85428570382254  C 0.441677409904233 5.85728569335937  0.0702580645161283 6.26357140764509  0.0665806357106853 7.1104285609654  C 0.0629032069052423 7.70571427525112  0.0629032069052423 8.30014283621652  0.062903235257055 8.89457142857143  C 0.84622492710899 8.82397405578587  1.61908666356535 8.64973252252571  2.36496774193548 8.37557141810826  L 2.36496774193548 7.1235  Z " fill-rule="nonzero" fill="#ffc65e" stroke="none" transform="matrix(1 0 0 1 2464 2045 )" />
  </g>
</svg>