<?xml version="1.0" encoding="utf-8"?>
<svg version="1.1" xmlns:xlink="http://www.w3.org/1999/xlink" width="20px" height="21px" xmlns="http://www.w3.org/2000/svg">
  <g transform="matrix(1 0 0 1 -2717 -2038 )">
    <path d="M 12.2692810457516 20.5201818181818  C 12.002614379085 20.7263636363636  11.5111111111111 20.9541818181818  11.0287581699346 20.9541818181818  C 10.8261437908497 20.9541818181818  10.6261437908497 20.9147272727273  10.4444444444444 20.8154545454545  C 9.83529411764706 20.4858181818182  9.65490196078431 19.5389090909091  9.79738562091504 19.0310909090909  C 10.2339869281046 17.4847272727273  9.8718954248366 16.6205454545455  8.46535947712418 15.8416363636364  C 7.44705882352941 15.2778181818182  6.58692810457517 14.5014545454545  5.75555555555556 13.7492727272727  C 5.32941176470588 13.3636363636364  4.92549019607843 12.9996363636364  4.50196078431373 12.6610909090909  C 4.40653594771242 12.5847272727273  4.27058823529412 12.5261818181818  4.20392156862745 12.5121818181818  C 3.82222222222222 12.5961818181818  3.43921568627451 12.7234545454545  3.03529411764706 12.8570909090909  C 2.69542483660131 12.9690909090909  2.34509803921569 13.0861818181818  1.98169934640523 13.1803636363636  C 1.93464052287582 13.1930909090909  0.816993464052289 13.4730909090909  0.316339869281047 12.8112727272727  C -0.0130718954248354 12.376  -0.0771241830065345 11.6441818181818  0.168627450980394 11.144  C 1.16862745098039 9.11781818181819  2.75816993464052 7.56381818181819  4.89150326797386 6.524  C 5.37777777777778 6.28727272727273  5.86013071895425 5.88509090909091  6.18169934640523 5.44727272727273  C 8.92418300653595 1.72454545454546  12.6718954248366 -0.100545454545451  17.318954248366 0.019090909090913  C 17.8143790849673 0.0318181818181857  19.3098039215686 0.0700000000000039  19.5830065359477 1.70927272727273  C 19.6483660130719 1.98927272727273  20.5254901960784 5.8889090909091  19.437908496732 8.98672727272728  C 19.4339869281046 8.99945454545455  19.4287581699346 9.01218181818182  19.4235294117647 9.02490909090909  C 18.9738562091503 10.5267272727273  18.197385620915 11.8210909090909  16.837908496732 13.3369090909091  C 16.2901960784314 13.9478181818182  15.8862745098039 14.518  15.6967320261438 15.316  C 15.1986928104575 17.4096363636364  14.0457516339869 19.1609090909091  12.2692810457516 20.5201818181818  Z M 3.90980392156862 11.0090909090909  C 4.00261437908496 10.9912727272727  4.09803921568627 10.9823636363636  4.1921568627451 10.9823636363636  C 4.69019607843137 10.9823636363636  5.18823529411765 11.2330909090909  5.49803921568627 11.48  C 5.95947712418301 11.8478181818182  6.39869281045752 12.2461818181818  6.82352941176471 12.6305454545455  C 7.62483660130719 13.3547272727273  8.38169934640523 14.0394545454545  9.240522875817 14.5141818181818  C 11.2339869281046 15.6176363636364  11.9071895424837 17.1347272727273  11.3516339869281 19.2805454545455  C 12.8104575163399 18.1478181818182  13.7581699346405 16.6981818181818  14.1686274509804 14.9723636363636  C 14.4483660130719 13.7976363636364  15.0771241830065 12.9792727272727  15.6562091503268 12.3327272727273  C 16.8745098039216 10.9734545454545  17.5555555555556 9.83945454545455  17.9359477124183 8.53872727272727  C 17.9464052287582 8.50309090909091  17.959477124183 8.46872727272727  17.9751633986928 8.43436363636364  C 18.8496732026144 5.85963636363636  18.1477124183007 2.47036363636364  18.0614379084967 2.07963636363636  C 18.0522875816993 2.04781818181818  18.0444444444444 2.01345454545454  18.0392156862745 1.98036363636364  C 17.9960784313725 1.68636363636364  17.9777777777778 1.56545454545454  17.2771241830065 1.54636363636364  C 13.1228758169935 1.43818181818182  9.91111111111111 3.00618181818182  7.45490196078431 6.33818181818182  C 6.98431372549019 6.97709090909091  6.30588235294117 7.54218181818182  5.59215686274509 7.88963636363636  C 3.79346405228758 8.76654545454545  2.49934640522875 10.0087272727273  1.64052287581699 11.6861818181818  C 1.93071895424836 11.6085454545455  2.22222222222222 11.5118181818182  2.5281045751634 11.41  C 2.96993464052287 11.2636363636364  3.42614379084967 11.1121818181818  3.90980392156862 11.0090909090909  Z " fill-rule="nonzero" fill="#00a0e9" stroke="none" transform="matrix(1 0 0 1 2717 2038 )" />
  </g>
</svg>