<?xml version="1.0" encoding="utf-8"?>
<svg version="1.1" xmlns:xlink="http://www.w3.org/1999/xlink" width="30px" height="20px" xmlns="http://www.w3.org/2000/svg">
  <g transform="matrix(1 0 0 1 -3013 -2056 )">
    <path d="M 28.9399171842246 6.95777777777778  L 29 6.95777777777778  L 29 18.8559259259259  C 28.939669996351 19.4037959684004  28.4926808637032 19.8478048348455  27.9414078675757 19.847736625434  L 19 19.847736625434  L 19 6.95761316876447  L 28.9399171842246 6.95761316876447  Z M 11.1188405797506 19.8479012344473  L 11.0932505175175 19.8543209877749  L 2.13507246384899 19.8543209877749  C 1.58385093167702 19.8541975311053  1.13693581800757 19.410164609375  1.13677018621409 18.8623456788918  L 1.13677018621409 6.95794238679109  L 11.1188405797506 6.95794238679109  L 11.1188405797506 19.8479012344473  Z M 1.14306418199243 0.0155555555555535  L 1.14306418199243 0.009300411603011  L 11.125465838388 0.009300411603011  L 11.125465838388 4.96975308629919  L 1.14306418199243 4.96975308629919  C 0.878333041928212 4.96965148221556  0.624466493218818 4.86512614697699  0.43722567267566 4.67913580258969  C 0.250071114347639 4.49298271128096  0.144937406402335 4.24060004974692  0.144927536151009 3.97744855975116  L 0.144927536151009 1.00773662543403  C 0.148488612796001 0.46119341543692  0.593291925465838 0.0190946502459479  1.14306418199243 0.0155555555555535  Z M 18.9515527949097 5  L 18.9898550725446 0.009300411603011  L 28.9717598342877 0.009300411603011  C 29.5216977226077 0.0126748972800941  29.9668322981366 0.454732510489006  29.9705590062112 1.00131687246817  L 29.9705590062112 3.97744855975116  C 29.9703933747816 4.52559670789931  29.5233126293187 4.96975308629919  28.9717598342877 5  L 18.9515527949097 5  Z " fill-rule="nonzero" fill="#1d92ff" stroke="none" transform="matrix(1 0 0 1 3013 2056 )" />
  </g>
</svg>