<?xml version="1.0" encoding="utf-8"?>
<svg version="1.1" xmlns:xlink="http://www.w3.org/1999/xlink" width="50px" height="50px" xmlns="http://www.w3.org/2000/svg">
  <g transform="matrix(1 0 0 1 -1640 -1305 )">
    <path d="M 22.5172413574219 32.6896551757813  L 14.5172413574219 24.6896551757813  C 13.5862068847656 23.758620703125  12.1034482421875 23.758620703125  11.2068965332031 24.6896551757813  C 10.2758620605469 25.6206896484375  10.2758620605469 27.1034482910156  11.2068965332031 28  L 20.8620689453125 37.6551724121094  C 21.3103448242188 38.1034482910156  21.9310344726563 38.3448275878906  22.5172413574219 38.3448275878906  C 23.1034482421875 38.3448275878906  23.724137890625 38.1034482910156  24.1724137695312 37.6551724121094  L 46.241379296875 15.5862068847656  C 47.1724137695312 14.6551724121094  47.1724137695312 13.1724137695313  46.241379296875 12.2758620605469  C 45.3103448242187 11.3448275878906  43.8275861816406 11.3448275878906  42.9310344726563 12.2758620605469  L 22.5172413574219 32.6896551757813  Z M 50 25  C 50 24.1379310546875  49.9655172363281 23.241379296875  49.8620689453125 22.4137931152344  C 49.7791799977009 21.4930857447269  49.0074878894676 20.7877461686812  48.083056907867 20.7877461686812  C 47.0965620853682 20.7877461686812  46.2968500231014 21.587458230948  46.2968500231014 22.5739530534468  C 46.2968500231014 22.6472108051809  46.3013568023325 22.7203991777095  46.3103448242187 22.7931034667969  C 46.3793103515625 23.51724140625  46.4137931152344 24.275862109375  46.4137931152344 25.0344827636719  C 46.4137931152344 36.8620689941406  36.7931034667969 46.4482758789063  25 46.4482758789063  C 13.2068965332031 46.4482758789063  3.58620688476562 36.8275862304688  3.58620688476562 25.0344827636719  C 3.58620688476562 13.2068965332031  13.2068965332031 3.6206896484375  25 3.6206896484375  C 29.2068965332031 3.6206896484375  33.3103448242187 4.82758618164063  36.7931034667969 7.17241376953125  C 37.6206896972656 7.724137890625  38.7241379394531 7.48275859375  39.2758620605469 6.65517241210938  C 39.8275861816406 5.82758618164063  39.5862068847656 4.72413793945313  38.758620703125 4.17241376953125  C 34.6896551757812 1.41379311523438  29.9310344726562 0  25 0  C 11.2068965332031 0  0 11.2068965332031  0 25  C 0 38.7931034667969  11.2068965332031 50  25 50  C 38.7931034667969 50  50 38.7931034667969  50 25  Z " fill-rule="nonzero" fill="#fd7461" stroke="none" transform="matrix(1 0 0 1 1640 1305 )" />
  </g>
</svg>