<?xml version="1.0" encoding="utf-8"?>
<svg version="1.1" xmlns:xlink="http://www.w3.org/1999/xlink" width="35px" height="40px" xmlns="http://www.w3.org/2000/svg">
  <g transform="matrix(1 0 0 1 -334 -1238 )">
    <path d="M 34.6619318181818 12.5425  L 34.6644176136364 12.5425  C 35.0776230488725 15.9248309842137  34.9009693556856 19.3537296414569  34.1424005681818 22.675  C 33.8813920454545 23.875  33.4886363636364 25.075  33.0983664772727 26.275  C 32.7056107954545 27.475  32.18359375 28.5425  31.6615767045454 29.6075  C 29.9637784090909 32.675  27.8757102272727 35.475  25.0021306818182 37.3425  C 21.6090198863636 39.6075  17.8231534090909 40.5425  13.7762784090909 39.6075  C 12.2102272727273 39.2075  10.6416903409091 38.675  9.20490056818181 38.0075  C 4.375 35.6075  1.37464488636363 31.6075  0.328124999999996 26.275  C -0.0646306818181863 24.4075  0.196377840909087 22.4075  0.589133522727268 20.5425  C 1.11115056818181 18.5425  1.76491477272727 16.5425  2.67720170454545 14.675  C 3.59197443181818 12.8075  4.63600852272727 10.9425  5.94105113636363 9.2075  C 7.77059659090908 6.4075  9.98792613636363 4.0075  12.3394886363636 1.7425  C 12.2077414772727 3.075  11.9467329545454 4.4075  11.8174715909091 5.7425  C 11.6857244318182 7.2075  11.5564630681818 8.675  11.9467329545454 10.1425  C 12.0784801136364 10.5425  12.3394886363636 11.075  12.46875 11.475  C 12.46875 11.7425  12.6004971590909 11.875  12.7297585227273 12.0075  C 13.1225142045455 12.4075  13.1225142045455 12.4075  13.64453125 12.275  C 14.9391304882695 11.7262262242021  16.1311760691054 10.9593972088485  17.1693892045454 10.0075  C 19.2574573863636 8.4075  21.0870028409091 6.4075  22.6530539772727 4.275  C 23.5678267045455 2.9425  24.6118607954545 1.6075  25.5241477272727 0.275  C 25.5241477272727 0.1425  25.5241477272727 0.1425  25.6558948863636 0.00749999999999969  C 26.0461647727273 0.4075  26.3071732954545 0.8075  26.5706676136364 1.2075  C 27.6147017045455 3.075  28.13671875 5.075  28.2659801136364 7.2075  C 28.3977272727273 9.7425  28.0049715909091 12.1425  27.4829545454545 14.5425  C 27.3536931818182 15.2075  27.0926846590909 15.875  26.9609375 16.5425  L 26.9609375 16.675  C 28.6587357954545 16.9425  30.0930397727273 16.675  31.5298295454545 15.875  C 32.9666193181818 15.075  33.8813920454545 13.875  34.6619318181818 12.4075  L 34.6619318181818 12.5425  Z M 11.6857244318182 29.475  L 11.6832386363636 29.475  L 11.8149857954545 20.275  L 9.85617897727273 20.275  L 9.85617897727273 24.0075  L 5.94105113636364 24.0075  L 5.94105113636364 20.275  L 3.98224431818182 20.275  L 3.98224431818182 29.475  L 5.81178977272727 29.475  L 5.81178977272727 25.6075  L 9.72691761363636 25.6075  L 9.72691761363636 29.475  L 11.6857244318182 29.475  Z M 15.9936079545455 22.5425  C 16.515625 22.0075  17.0376420454546 21.7425  17.8231534090909 21.7425  C 18.4744318181818 21.7425  19.1281960227273 22.0075  19.5184659090909 22.5425  C 19.9112215909091 23.075  20.1722301136364 23.875  20.1722301136364 24.8075  C 20.1722301136364 25.7425  19.9112215909091 26.5425  19.5184659090909 27.075  C 18.9964488636364 27.6075  18.4744318181818 27.875  17.69140625 27.875  C 17.031719253535 27.8924233056897  16.4024961148517 27.5959343103277  15.9936079545455 27.075  C 15.5643121759491 26.3978384048261  15.3381933921772 25.6105800909531  15.3423295454546 24.8075  C 15.3423295454546 23.875  15.6033380681818 23.075  15.9936079545455 22.5425  Z M 17.69140625 29.6075  C 18.9964488636364 29.6075  20.1722301136364 29.2075  20.9552556818182 28.275  C 21.73828125 27.475  22.1310369318182 26.275  22.2602982954546 24.675  C 22.2602982954546 23.3425  21.8700284090909 22.275  21.0870028409091 21.3425  C 20.3039772727273 20.4075  19.2574573863636 20.0075  17.9549005681818 20.0075  C 16.6473721590909 20.0075  15.4715909090909 20.4075  14.6885653409091 21.3425  C 13.7762784090909 22.275  13.3835227272727 23.475  13.3835227272727 24.9425  C 13.3835227272727 26.275  13.7762784090909 27.3425  14.5593039772727 28.275  C 15.3423295454546 29.2075  16.3863636363636 29.6075  17.69140625 29.6075  Z M 27.3536931818182 21.875  L 29.9637784090909 21.875  L 29.8345170454545 21.875  L 29.8345170454545 20.275  L 22.7823153409091 20.275  L 22.7823153409091 21.875  L 25.3924005681818 21.875  L 25.3924005681818 29.475  L 27.3536931818182 29.475  L 27.3536931818182 21.875  Z " fill-rule="nonzero" fill="#fe4a65" stroke="none" transform="matrix(1 0 0 1 334 1238 )" />
  </g>
</svg>