<?xml version="1.0" encoding="utf-8"?>
<svg version="1.1" xmlns:xlink="http://www.w3.org/1999/xlink" width="12px" height="12px" xmlns="http://www.w3.org/2000/svg">
  <g transform="matrix(1 0 0 1 -224 -2119 )">
    <path d="M 230 2119  C 233.36 2119  236 2121.64  236 2125  C 236 2128.36  233.36 2131  230 2131  C 226.64 2131  224 2128.36  224 2125  C 224 2121.64  226.64 2119  230 2119  Z " fill-rule="nonzero" fill="#000000" stroke="none" />
    <path d="M 230 2119.5  C 233.08 2119.5  235.5 2121.92  235.5 2125  C 235.5 2128.08  233.08 2130.5  230 2130.5  C 226.92 2130.5  224.5 2128.08  224.5 2125  C 224.5 2121.92  226.92 2119.5  230 2119.5  Z " stroke-width="1" stroke="#797979" fill="none" />
  </g>
</svg>