<?xml version="1.0" encoding="utf-8"?>
<svg version="1.1" xmlns:xlink="http://www.w3.org/1999/xlink" width="38px" height="39px" xmlns="http://www.w3.org/2000/svg">
  <g transform="matrix(1 0 0 1 -119 -2161 )">
    <path d="M 138 2161.5  C 148.36 2161.5  156.5 2169.86  156.5 2180.5  C 156.5 2191.14  148.36 2199.5  138 2199.5  C 127.64 2199.5  119.5 2191.14  119.5 2180.5  C 119.5 2169.86  127.64 2161.5  138 2161.5  Z " fill-rule="nonzero" fill="#f3f3f3" stroke="none" />
    <path d="M 138 2161.5  C 148.36 2161.5  156.5 2169.86  156.5 2180.5  C 156.5 2191.14  148.36 2199.5  138 2199.5  C 127.64 2199.5  119.5 2191.14  119.5 2180.5  C 119.5 2169.86  127.64 2161.5  138 2161.5  Z " stroke-width="1" stroke="#000000" fill="none" stroke-opacity="0.0470588235294118" />
  </g>
</svg>