<?xml version="1.0" encoding="utf-8"?>
<svg version="1.1" xmlns:xlink="http://www.w3.org/1999/xlink" width="30px" height="27px" xmlns="http://www.w3.org/2000/svg">
  <g transform="matrix(1 0 0 1 -171 -283 )">
    <path d="M 20.0728178797212 0.112018601559731  C 23.856734451829 -0.0635633906416162  27.313642027341 1.85774428394186  29.1479385637867 5.20573229351294  C 30.3642751661533 7.88687573555477  29.9182125412006 11.316842786246  28.8520140757551 13.9404785093938  C 28.6810493056681 15.1316219691599  28.6471672070028 16.3545782169443  28.351242745988 17.4918847040057  C 27.5846988977144 18.5355882399858  26.4271120116713 17.6075118929458  25.5129167612255 17.4918847040057  C 24.5642177284271 17.2003696207019  23.5608099637975 16.2967646490606  22.5225875614632 16.991445382843  C 20.5437480953153 19.6744241581  17.7641718268763 21.7095236884084  14.599769411574 22.174479528536  C 14.3321318420057 22.3200841191067  14.2143215810234 22.6412707284651  14.3927466364078 22.8749722172988  C 16.2559517479872 23.2518311591634  18.6202390446858 22.7890165544133  19.7772042470417 24.620697899681  C 20.0429767385314 25.3227200460829  19.6541096071757 25.9314451435661  19.2727027611174 26.4260725097483  C 17.409497649538 27.2978647199575  15.1042708974982 26.8329088798298  12.9737390717026 26.8631921836228  C 11.9945772140271 26.7172816908898  10.6343193656454 27.0069614143921  10.4008747500946 25.7258857231478  C 10.2833753174474 24.5029294753633  10.3685468741557 23.3714349432825  10.3383948776139 22.174479528536  C 8.2075521964662 21.3026873183268  5.99153795861025 20.3391274902517  4.10191103366294 18.7426771180432  C 0.728620765115902 16.0596983427862  -0.30742573080456 12.1629400655796  0.254271248716702 8.0028088000709  C 0.637543172853515 6.31122601914215  0.965795536823905 4.33363418114144  2.73792302912412 3.4600066111308  C 3.00151961420003 3.34223818681319  3.39069760090776 3.34223818681319  3.65615926406225 3.4600066111308  C 6.70306224671746 4.36361160935838  9.53765810233966 5.81996344381425  12.6719085211001 6.51647953739808  C 13.0324887610093 5.90591910669975  13.1499881666396 5.23754505494505  13.3837436645594 4.56335907479617  C 14.743690657589 2.03699699574619  17.3787239963257 0.46134727933357  20.0728178797212 0.112018601559731  Z " fill-rule="nonzero" fill="#231916" stroke="none" transform="matrix(1 0 0 1 171 283 )" />
  </g>
</svg>