<?xml version="1.0" encoding="utf-8"?>
<svg version="1.1" xmlns:xlink="http://www.w3.org/1999/xlink" width="26px" height="19px" xmlns="http://www.w3.org/2000/svg">
  <g transform="matrix(1 0 0 1 -173 -285 )">
    <path d="M 17.5035651204468 0.200029359636497  C 20.1139555576394 -0.0655710735754807  22.3129172605651 0.638686530917506  24.1185282153872 2.31064280190783  C 26.0207625885638 4.3065020461152  26.5232042989914 7.62265151976971  25.3378532841544 10.0590188172043  C 24.2400866945903 12.0548780614117  22.2197224472785 13.5818492055429  19.8493320892723 13.4652441255327  C 17.4483962824039 17.1052965455931  13.6208626135701 19.5718947718229  9.11384821830458 18.6624986453306  C 5.55436659581562 17.6907897256794  1.22626132783196 15.2278932365309  0.482572797366008 11.2040929373748  C -0.1969079290656 8.70726375553862  0.189585690172543 6.03706937318319  0.988443085771442 3.71730712894759  C 1.88080699341502 3.51587031721841  2.79405404059348 4.04121010216465  3.62719716179045 4.36696395732791  C 6.11945767066767 5.33466265063641  8.63821170709344 6.15768465272486  11.160705993165 7.03684985042192  C 12.8484987184296 6.77155790647137  12.2871478932233 4.68685667739113  13.0270962011336 3.60255293088364  C 13.8851743831791 1.83990381988542  15.7247593919313 0.664907233370022  17.5035651204468 0.200029359636497  Z " fill-rule="nonzero" fill="#fff000" stroke="none" transform="matrix(1 0 0 1 173 285 )" />
  </g>
</svg>