<?xml version="1.0" encoding="utf-8"?>
<svg version="1.1" xmlns:xlink="http://www.w3.org/1999/xlink" width="16px" height="11px" xmlns="http://www.w3.org/2000/svg">
  <g transform="matrix(1 0 0 1 -183 -298 )">
    <path d="M 15.8459081208397 0.0662031013540432  C 16.0567364533197 0.662217933592197  15.7230558388804 1.23523642473118  15.6366508141321 1.80636479739148  C 15.0673200750981 2.04294362305854  14.5322371735791 1.710284194544  14.0527676941458 1.50646727648347  L 14.0527676941458 1.23555142622461  C 14.7374099061273 1.02574915123457  15.1879729646697 0.306562136598964  15.8459081208397 0.0662031013540432  Z M 0.211621177675369 7.76840329301075  C 0.627936426011261 7.86070368628037  1.64248880696364 7.4722859816806  1.3471406588155 8.33953166567105  C 1.31634902884451 8.93932673486658  1.31634902884451 9.77790574970131  2.06226026284349 9.77790574970131  C 3.5870737532002 9.74892405167264  5.08109564089435 9.80468232775787  6.36586019457245 10.2872905167264  C 6.51918989588667 11.0987779520112  5.32051618364909 10.6489316432696  4.81622488479262 10.8606240367384  C 3.44128488820618 10.7046899193548  1.79581850827786 10.8851954674433  0.357724280593956 10.7352467069892  C 0.211621204983783 9.77759072082836  0.0293850827786281 8.76039627638391  0.211621177675369 7.76840329301075  Z " fill-rule="nonzero" fill="#f9be00" stroke="none" transform="matrix(1 0 0 1 183 298 )" />
  </g>
</svg>