<?xml version="1.0" encoding="utf-8"?>
<svg version="1.1" xmlns:xlink="http://www.w3.org/1999/xlink" width="87px" height="63px" xmlns="http://www.w3.org/2000/svg">
  <defs>
    <mask fill="white" id="clip614">
      <path d="M 0 55.125  L 0 7.875  C 0 3.46500000000007  1.36714285714274 0  3.10714285714286 0  L 47.4616071428571 0  L 83.8928571428571 0  C 85.6328571428572 0  87 3.46500000000007  87 7.875  L 87 55.125  C 87 59.5349999999999  85.6328571428572 63  83.8928571428571 63  L 3.10714285714286 63  C 1.36714285714274 63  0 59.5349999999999  0 55.125  Z " fill-rule="evenodd" />
    </mask>
  </defs>
  <g transform="matrix(1 0 0 1 -1281 -636 )">
    <path d="M 0 55.125  L 0 7.875  C 0 3.46500000000007  1.36714285714274 0  3.10714285714286 0  L 47.4616071428571 0  L 83.8928571428571 0  C 85.6328571428572 0  87 3.46500000000007  87 7.875  L 87 55.125  C 87 59.5349999999999  85.6328571428572 63  83.8928571428571 63  L 3.10714285714286 63  C 1.36714285714274 63  0 59.5349999999999  0 55.125  Z " fill-rule="nonzero" fill="#ffffff" stroke="none" transform="matrix(1 0 0 1 1281 636 )" />
    <path d="M 0 55.125  L 0 7.875  C 0 3.46500000000007  1.36714285714274 0  3.10714285714286 0  L 47.4616071428571 0  L 83.8928571428571 0  C 85.6328571428572 0  87 3.46500000000007  87 7.875  L 87 55.125  C 87 59.5349999999999  85.6328571428572 63  83.8928571428571 63  L 3.10714285714286 63  C 1.36714285714274 63  0 59.5349999999999  0 55.125  Z " stroke-width="2" stroke="#797979" fill="none" transform="matrix(1 0 0 1 1281 636 )" mask="url(#clip614)" />
  </g>
</svg>