<?xml version="1.0" encoding="utf-8"?>
<svg version="1.1" xmlns:xlink="http://www.w3.org/1999/xlink" width="472px" height="210px" xmlns="http://www.w3.org/2000/svg">
  <g transform="matrix(1 0 0 1 -154 -310 )">
    <path d="M 154 310  L 626 310  L 626 520  L 154 520  L 154 310  " fill-rule="nonzero" fill="#cccccc" stroke="none" />
    <path d="M 169 325  L 611 325  L 611 505  L 169 505  L 169 325  " fill-rule="nonzero" fill="#ffffff" stroke="none" />
    <path d="M 415.19 373  C 406.37 373  399.44 366.07  399.44 357.25  C 399.44 348.43  406.37 341.5  415.19 341.5  C 424.01 341.5  430.94 348.43  430.94 357.25  C 430.94 366.07  424.01 373  415.19 373  " fill-rule="nonzero" fill="#cccccc" stroke="none" />
    <path d="M 175 500  L 175 407.05  L 282.75 364.8  L 433.6 454.885593220339  L 519.8 390.15  L 606 454.885593220339  L 606 500  L 175 500  " fill-rule="nonzero" fill="#169bd5" stroke="none" />
  </g>
</svg>