<?xml version="1.0" encoding="utf-8"?>
<svg version="1.1" xmlns:xlink="http://www.w3.org/1999/xlink" width="32px" height="31px" xmlns="http://www.w3.org/2000/svg">
  <g transform="matrix(1 0 0 1 -328 -481 )">
    <path d="M 344 481  C 352.96 481  360 487.82  360 496.5  C 360 505.18  352.96 512  344 512  C 335.04 512  328 505.18  328 496.5  C 328 487.82  335.04 481  344 481  Z " fill-rule="nonzero" fill="#000000" stroke="none" />
    <path d="M 344 481.5  C 352.68 481.5  359.5 488.1  359.5 496.5  C 359.5 504.9  352.68 511.5  344 511.5  C 335.32 511.5  328.5 504.9  328.5 496.5  C 328.5 488.1  335.32 481.5  344 481.5  Z " stroke-width="1" stroke="#797979" fill="none" />
  </g>
</svg>