<?xml version="1.0" encoding="utf-8"?>
<svg version="1.1" xmlns:xlink="http://www.w3.org/1999/xlink" width="21px" height="21px" xmlns="http://www.w3.org/2000/svg">
  <g transform="matrix(1 0 0 1 -156 -270 )">
    <path d="M 20.811 10.5  C 20.811 9.41325  19.905375 8.53125  18.78975 8.53125  L 6.911625 8.53125  L 11.904375 3.535875  C 12.6930523968276 2.76792803235148  12.7106729248056 1.50629822912385  11.94375 0.716625000000002  C 11.5710633370037 0.352657295665252  11.070796011541 0.148899687056403  10.5498662287737 0.148899687056403  C 10.012216684894 0.148899687056403  9.49732677634184 0.365908479792303  9.121875 0.750750000000001  L 0.813749999999999 9.0615  C 0.795375 9.07725  0.771749999999999 9.0825  0.753375 9.10087499999999  C 0.380090281253142 9.47770143319398  0.177133643616504 9.99078340030343  0.191624999999999 10.521  C 0.191624999999999 11.022375  0.375374999999999 11.52375  0.755999999999999 11.90175  C 0.771749999999999 11.9175  0.792749999999998 11.92275  0.808499999999997 11.935875  L 9.121875 20.24925  C 9.912 21.03675  11.174625 21.055125  11.94375 20.286  C 12.7106729248056 19.4963267708762  12.6930523968276 18.2346969676485  11.904375 17.46675  L 6.909 12.46875  L 18.78975 12.46875  C 19.905375 12.46875  20.811 11.58675  20.811 10.5  Z " fill-rule="nonzero" fill="#999999" stroke="none" transform="matrix(1 0 0 1 156 270 )" />
  </g>
</svg>