<?xml version="1.0" encoding="utf-8"?>
<svg version="1.1" xmlns:xlink="http://www.w3.org/1999/xlink" width="47px" height="42px" xmlns="http://www.w3.org/2000/svg">
  <g transform="matrix(1 0 0 1 -2021 -812 )">
    <path d="M 36.626953125 23.98046875  C 37.0145399305556 23.6341145833333  37.2083333333333 23.2239583333333  37.2083333333333 22.75  L 37.2083333333333 19.25  C 37.2083333333333 18.7760416666667  37.0145399305556 18.3658854166667  36.626953125 18.01953125  C 36.2393663194444 17.6731770833333  35.7803819444444 17.5  35.25 17.5  L 27.4166666666667 17.5  L 27.4166666666667 10.5  C 27.4166666666667 10.0260416666667  27.2228732638889 9.61588541666666  26.8352864583333 9.26953125  C 26.4476996527778 8.92317708333333  25.9887152777778 8.75  25.4583333333333 8.75  L 21.5416666666667 8.75  C 21.0112847222222 8.75  20.5523003472222 8.92317708333333  20.1647135416667 9.26953125  C 19.7771267361111 9.61588541666666  19.5833333333333 10.0260416666667  19.5833333333333 10.5  L 19.5833333333333 17.5  L 11.75 17.5  C 11.2196180555556 17.5  10.7606336805556 17.6731770833333  10.373046875 18.01953125  C 9.98546006944444 18.3658854166667  9.79166666666667 18.7760416666667  9.79166666666667 19.25  L 9.79166666666667 22.75  C 9.79166666666667 23.2239583333333  9.98546006944444 23.6341145833333  10.373046875 23.98046875  C 10.7606336805556 24.3268229166667  11.2196180555556 24.5  11.75 24.5  L 19.5833333333333 24.5  L 19.5833333333333 31.5  C 19.5833333333333 31.9739583333333  19.7771267361111 32.3841145833333  20.1647135416667 32.73046875  C 20.5523003472222 33.0768229166667  21.0112847222222 33.25  21.5416666666667 33.25  L 25.4583333333333 33.25  C 25.9887152777778 33.25  26.4476996527778 33.0768229166667  26.8352864583333 32.73046875  C 27.2228732638889 32.3841145833333  27.4166666666667 31.9739583333333  27.4166666666667 31.5  L 27.4166666666667 24.5  L 35.25 24.5  C 35.7803819444444 24.5  36.2393663194444 24.3268229166667  36.626953125 23.98046875  Z M 43.8483072916667 10.458984375  C 45.9494357638889 13.6764322916667  47 17.1901041666667  47 21  C 47 24.8098958333333  45.9494357638889 28.3235677083333  43.8483072916667 31.541015625  C 41.7471788194444 34.7584635416667  38.8963758680556 37.3059895833333  35.2958984375 39.18359375  C 31.6954210069444 41.0611979166667  27.7634548611111 42  23.5 42  C 19.2365451388889 42  15.3045789930556 41.0611979166667  11.7041015625 39.18359375  C 8.10362413194444 37.3059895833333  5.25282118055556 34.7584635416667  3.15169270833333 31.541015625  C 1.05056423611111 28.3235677083333  0 24.8098958333333  0 21  C 0 17.1901041666667  1.05056423611111 13.6764322916667  3.15169270833333 10.458984375  C 5.25282118055556 7.24153645833333  8.10362413194444 4.69401041666666  11.7041015625 2.81640625  C 15.3045789930556 0.93880208333333  19.2365451388889 0  23.5 0  C 27.7634548611111 0  31.6954210069444 0.93880208333333  35.2958984375 2.81640625  C 38.8963758680556 4.69401041666666  41.7471788194444 7.24153645833333  43.8483072916667 10.458984375  Z " fill-rule="nonzero" fill="#999999" stroke="none" transform="matrix(1 0 0 1 2021 812 )" />
  </g>
</svg>