<?xml version="1.0" encoding="utf-8"?>
<svg version="1.1" xmlns:xlink="http://www.w3.org/1999/xlink" width="40px" height="40px" xmlns="http://www.w3.org/2000/svg">
  <g transform="matrix(1 0 0 1 -147 -261 )">
    <path d="M 39.9468085106383 20  C 39.9468085106383 8.9813829787234  31.0186170212766 0.0531914893617021  20 0.0531914893617021  C 8.98138297872341 0.0531914893617021  0.0531914893617021 8.98138297872341  0.0531914893617021 20  C 0.0531914893617021 31.0186170212766  8.98138297872341 39.9468085106383  20 39.9468085106383  C 31.0186170212766 39.9468085106383  39.9468085106383 31.0186170212766  39.9468085106383 20  Z M 19.9999997622155 35.9574468085106  C 11.186945243639 35.9574468085106  4.04255295370487 28.8130545185765  4.04255295370487 20  C 4.04255295370487 11.1869454814235  11.186945243639 4.04255319148936  19.9999997622155 4.04255319148936  C 28.813054280792 4.04255319148936  35.9574465707261 11.1869454814235  35.9574465707261 20  C 35.9574465707261 28.8130545185765  28.813054280792 35.9574468085106  19.9999997622155 35.9574468085106  Z " fill-rule="nonzero" fill="#999999" stroke="none" transform="matrix(1 0 0 1 147 261 )" />
  </g>
</svg>