<?xml version="1.0" encoding="utf-8"?>
<svg version="1.1" xmlns:xlink="http://www.w3.org/1999/xlink" width="25px" height="28px" xmlns="http://www.w3.org/2000/svg">
  <g transform="matrix(1 0 0 1 -586 -930 )">
    <path d="M 10.7668869295987 15.7818125117187  L 18.8152838412198 7.87884373828125  C 19.0757850508256 7.6230312265625  19.4973556795987 7.62384374609375  19.7569056840376 7.88056251171875  C 20.0164557162198 8.1373437578125  20.0156313254616 8.55284376953125  19.7551618263938 8.80865625390625  L 11.2428025956587 17.1671874882813  L 11.2419465221058 17.1680312617187  C 10.9834428267045 17.4218437695313  10.566374539462 17.4230312539062  10.3063806429776 17.1722187382812  L 5.29759790593928 12.3605625117188  C 5.03427479137074 12.10759375  5.02885298295455 11.6921250195313  5.28554939963601 11.4325625039063  C 5.54221413352273 11.1730312421875  5.96375302401456 11.1676875078125  6.22710784912109 11.4206874960938  L 10.7668552190607 15.7818125117187  Z M 24.9579887806286 13.9968437382812  C 24.9590350896662 14.016718734375  24.9591619318182 14.0368124804687  24.9583692793413 14.0570624960937  C 24.9002511319247 15.5116250078125  24.6472009554776 16.792218734375  24.1950651966442 17.8973749882812  C 24.1685901988636 17.9620624804687  24.0364372114702 18.2939687382813  23.9951552234996 18.3954062578125  C 23.8994013560902 18.6306562695312  23.8094498235529 18.8403125039062  23.7097326382724 19.0565624921875  C 23.4465363658558 19.6273124960938  23.1438970947266 20.1782812382813  22.7705839122425 20.7397812617188  C 21.7983969116211 22.2021875195313  20.4439554665305 23.5847187734375  18.5853160511364 24.8767812617187  C 16.9833096590909 25.9904375117187  15.0489866499467 27.0032500117187  12.7446796486594 27.8999374882812  C 12.6673210067381 27.9301496340526  12.5848907546506 27.9457643698977  12.5016804365678 27.94596875  C 12.4167341102615 27.9464224164045  12.3324885141141 27.9308067510223  12.253513100364 27.8999687421875  C 9.94920607133345 27.0032812382813  8.01488308993253 25.990437484375  6.41284495960582 24.8767812617188  C 4.55420554421165 23.58475  3.19979580965909 22.2021875195313  2.22757709849965 20.7398124882813  C 1.85429559881037 20.1783124921875  1.55165632768111 19.6273124960938  1.28842837246982 19.0565624921875  C 1.18874289772727 18.8403125039063  1.09879133744673 18.6306874960938  1.00306920831854 18.3954062578125  C 0.961755537553268 18.293968765625  0.829634232954546 17.9620937617188  0.803127524636009 17.8974062421875  C 0.352260020862926 16.7953437421875  0.0993683971058244 15.5188437304688  0.0403307550603696 14.0693124960938  C 0.0290889212885332 14.0209501820798  0.0234303585335842 13.9714902932618  0 13.9218749960938  L 0 2.98437499609375  C 0.023462857333097 2.901812484375  0.038935657848012 2.8228125078125  0.0671862238103699 2.75000001171875  C 0.117758206454191 2.4933750078125  0.322233914462004 2.280812515625  0.598778658780185 2.22990624609375  L 11.8424056451971 0.16068748828125  C 12.2770668958961 0.0806958378341052  12.7229965251799 0.0806958378341052  13.1576577758789 0.16068748828125  L 24.4012530517578 2.22990624609375  C 24.7152749633789 2.28771875390625  24.9363649125533 2.5539687578125  24.9447354403409 2.8564375  C 24.9551986139471 2.9026562578125  24.9607155539773 2.95068749609375  25 3.0000000078125  L 25 13.9375000078125  C 24.9607155539773 13.9575000195313  24.9597960593484 13.9773125078125  24.9580204911666 13.9968749921875  Z M 23.6277394520153 14.0054374960938  C 23.6281516335227 13.994187484375  23.6288808926669 13.9830000078125  23.6298954911665 13.9719062382812  C 23.6292993443699 13.9604469302444  23.6290033178152 13.9489743684223  23.6290077070756 13.9375000078125  L 23.6290077070756 3.42296874609375  L 12.9132000732422 1.45093749609375  C 12.640093425822 1.40067691320874  12.359906574178 1.40067691320874  12.0867999267578 1.45093749609375  L 1.35513899369673 3.4259062578125  L 1.35513899369673 13.8883437382813  C 1.36366807417436 13.9261874882813  1.36889964710582 13.9653437382812  1.37048497980291 14.0054374960937  C 1.42286424116655 15.3166875039063  1.64680777809837 16.449874984375  2.03819374778054 17.4065624960937  C 2.06761743718928 17.478437484375  2.20037286931818 17.8118749921875  2.23902318781072 17.9068124921875  C 2.32780159690163 18.1250000039062  2.41020699240945 18.31703125  2.50079265247692 18.51346875  C 2.73700664173473 19.0256562617188  3.00740029074929 19.5180000039062  3.34146079323508 20.0204687539063  C 4.22192066539418 21.3448437617187  5.45888927112926 22.607500015625  7.18039772727273 23.8042187578125  C 8.63731484153054 24.8170312578125  10.3983931107955 25.7483749960938  12.4990805053711 26.5834062539063  C 14.5997678999467 25.7483749960938  16.3608461692116 24.8170312578125  17.8177949940075 23.8042187578125  C 19.5393034778942 22.607500015625  20.776303766424 21.3448437617187  21.6567319280451 20.0204687539063  C 21.9907924027876 19.51796875  22.2612177623402 19.0256250078125  22.4974317793413 18.51346875  C 22.588017467152 18.31703125  22.6703911521218 18.1250000039063  22.7591695334695 17.9068124921875  C 22.7978515625 17.811812484375  22.9306069946289 17.478437484375  22.9599989734996 17.4065624960938  C 23.3513849431818 16.449874984375  23.5753284801136 15.31665625  23.6277394520153 14.0054374960938  Z " fill-rule="nonzero" fill="#d7d7d7" stroke="none" transform="matrix(1 0 0 1 586 930 )" />
  </g>
</svg>