<?xml version="1.0" encoding="utf-8"?>
<svg version="1.1" xmlns:xlink="http://www.w3.org/1999/xlink" width="65px" height="69px" xmlns="http://www.w3.org/2000/svg">
  <g transform="matrix(1 0 0 1 -265 -537 )">
    <path d="M 297.5 537.5  C 315.42 537.5  329.5 552.46  329.5 571.5  C 329.5 590.54  315.42 605.5  297.5 605.5  C 279.58 605.5  265.5 590.54  265.5 571.5  C 265.5 552.46  279.58 537.5  297.5 537.5  Z " fill-rule="nonzero" fill="#f3f3f3" stroke="none" />
    <path d="M 297.5 537.5  C 315.42 537.5  329.5 552.46  329.5 571.5  C 329.5 590.54  315.42 605.5  297.5 605.5  C 279.58 605.5  265.5 590.54  265.5 571.5  C 265.5 552.46  279.58 537.5  297.5 537.5  Z " stroke-width="1" stroke="#000000" fill="none" stroke-opacity="0.0470588235294118" />
  </g>
</svg>